<svg width="33" height="33" viewBox="0 0 33 33" fill="none" xmlns="http://www.w3.org/2000/svg">
<path d="M26.125 2.75H6.875C5.78098 2.75 4.73177 3.1846 3.95818 3.95818C3.1846 4.73177 2.75 5.78098 2.75 6.875V20.625C2.75 21.719 3.1846 22.7682 3.95818 23.5418C4.73177 24.3154 5.78098 24.75 6.875 24.75H22.8113L27.8988 29.8512C28.0272 29.9787 28.1796 30.0795 28.3471 30.1479C28.5147 30.2164 28.694 30.251 28.875 30.25C29.0554 30.2546 29.2343 30.217 29.3975 30.14C29.6486 30.0368 29.8636 29.8617 30.0153 29.6366C30.167 29.4114 30.2486 29.1465 30.25 28.875V6.875C30.25 5.78098 29.8154 4.73177 29.0418 3.95818C28.2682 3.1846 27.219 2.75 26.125 2.75ZM27.5 25.5613L24.3512 22.3988C24.2228 22.2713 24.0704 22.1705 23.9029 22.1021C23.7353 22.0336 23.556 21.999 23.375 22H6.875C6.51033 22 6.16059 21.8551 5.90273 21.5973C5.64487 21.3394 5.5 20.9897 5.5 20.625V6.875C5.5 6.51033 5.64487 6.16059 5.90273 5.90273C6.16059 5.64487 6.51033 5.5 6.875 5.5H26.125C26.4897 5.5 26.8394 5.64487 27.0973 5.90273C27.3551 6.16059 27.5 6.51033 27.5 6.875V25.5613ZM16.5 16.5C16.2281 16.5 15.9622 16.5806 15.7361 16.7317C15.51 16.8828 15.3337 17.0976 15.2297 17.3488C15.1256 17.6001 15.0984 17.8765 15.1514 18.1432C15.2045 18.41 15.3354 18.655 15.5277 18.8473C15.72 19.0396 15.965 19.1705 16.2318 19.2236C16.4985 19.2766 16.7749 19.2494 17.0262 19.1453C17.2774 19.0413 17.4922 18.865 17.6433 18.6389C17.7944 18.4128 17.875 18.1469 17.875 17.875C17.875 17.5103 17.7301 17.1606 17.4723 16.9027C17.2144 16.6449 16.8647 16.5 16.5 16.5ZM16.5 8.25C16.1353 8.25 15.7856 8.39487 15.5277 8.65273C15.2699 8.91059 15.125 9.26033 15.125 9.625V13.75C15.125 14.1147 15.2699 14.4644 15.5277 14.7223C15.7856 14.9801 16.1353 15.125 16.5 15.125C16.8647 15.125 17.2144 14.9801 17.4723 14.7223C17.7301 14.4644 17.875 14.1147 17.875 13.75V9.625C17.875 9.26033 17.7301 8.91059 17.4723 8.65273C17.2144 8.39487 16.8647 8.25 16.5 8.25Z" fill="white"/>
</svg>
