<svg width="35" height="35" viewBox="0 0 35 35" fill="none" xmlns="http://www.w3.org/2000/svg">
<path d="M29.0688 16.57C28.7372 16.57 28.4193 16.4383 28.1849 16.2039C27.9504 15.9695 27.8188 15.6515 27.8188 15.32V11.79C27.8188 6.79 23.1988 2.79 17.5188 2.79C11.8388 2.79 7.21875 6.84 7.21875 11.79V15.32C7.21875 15.6515 7.08705 15.9695 6.85263 16.2039C6.61821 16.4383 6.30027 16.57 5.96875 16.57C5.63723 16.57 5.31929 16.4383 5.08487 16.2039C4.85045 15.9695 4.71875 15.6515 4.71875 15.32V11.79C4.71875 5.43 10.4688 0.25 17.5188 0.25C24.5688 0.25 30.3188 5.43 30.3188 11.79V15.32C30.3201 15.4845 30.2887 15.6477 30.2263 15.7999C30.164 15.9522 30.0719 16.0905 29.9556 16.2069C29.8393 16.3232 29.7009 16.4152 29.5487 16.4776C29.3964 16.5399 29.2333 16.5713 29.0688 16.57Z" fill="white"/>
<path d="M25.6883 28.33C25.3568 28.33 25.0388 28.1983 24.8044 27.9639C24.57 27.7295 24.4383 27.4115 24.4383 27.08V15.21C24.4487 14.8855 24.5849 14.5777 24.8182 14.3519C25.0515 14.126 25.3636 13.9998 25.6883 14C29.9983 14 33.5083 17.23 33.5083 21.19C33.5083 25.15 29.9983 28.33 25.6883 28.33ZM26.9383 16.59V25.7C28.0327 25.5188 29.0321 24.9687 29.7707 24.141C30.5092 23.3133 30.9424 22.2579 30.9983 21.15C30.9446 20.0404 30.5125 18.9826 29.7737 18.1529C29.035 17.3232 28.0343 16.7716 26.9383 16.59ZM9.30828 28.33C4.99828 28.33 1.48828 25.11 1.48828 21.15C1.48828 17.19 4.99828 14 9.30828 14C9.6398 14 9.95774 14.1317 10.1922 14.3661C10.4266 14.6005 10.5583 14.9185 10.5583 15.25V27.08C10.5583 27.4115 10.4266 27.7295 10.1922 27.9639C9.95774 28.1983 9.6398 28.33 9.30828 28.33ZM8.05828 16.59C6.96229 16.7716 5.96158 17.3232 5.22284 18.1529C4.4841 18.9826 4.05192 20.0404 3.99828 21.15C4.05414 22.2579 4.48732 23.3133 5.22587 24.141C5.96442 24.9687 6.96389 25.5188 8.05828 25.7V16.59Z" fill="white"/>
<path d="M25.2806 32.4H21.1406C20.8091 32.4 20.4912 32.2683 20.2567 32.0339C20.0223 31.7995 19.8906 31.4816 19.8906 31.15C19.8906 30.8185 20.0223 30.5006 20.2567 30.2662C20.4912 30.0317 20.8091 29.9 21.1406 29.9H25.2806C25.9278 29.9 26.5484 29.643 27.006 29.1854C27.4636 28.7278 27.7206 28.1072 27.7206 27.46V26.91C27.7206 26.5785 27.8523 26.2606 28.0867 26.0262C28.3212 25.7917 28.6391 25.66 28.9706 25.66C29.3021 25.66 29.6201 25.7917 29.8545 26.0262C30.0889 26.2606 30.2206 26.5785 30.2206 26.91V27.46C30.2206 28.7702 29.7002 30.0267 28.7737 30.9531C27.8473 31.8796 26.5908 32.4 25.2806 32.4Z" fill="white"/>
<path d="M18.9994 34.75H16.5294C15.6223 34.75 14.7524 34.3897 14.1111 33.7483C13.4697 33.107 13.1094 32.2371 13.1094 31.33V31.19C13.112 30.2847 13.4735 29.4174 14.1146 28.7782C14.7557 28.139 15.6241 27.78 16.5294 27.78H18.9994C19.9038 27.78 20.7711 28.1393 21.4106 28.7788C22.0501 29.4183 22.4094 30.2856 22.4094 31.19V31.33C22.4094 32.2353 22.0504 33.1037 21.4112 33.7448C20.772 34.3859 19.9047 34.7474 18.9994 34.75ZM16.5494 30.28C16.3071 30.28 16.0746 30.3756 15.9023 30.5459C15.7301 30.7163 15.632 30.9478 15.6294 31.19V31.33C15.6294 31.574 15.7263 31.808 15.8988 31.9806C16.0714 32.1531 16.3054 32.25 16.5494 32.25H18.9994C19.2416 32.2474 19.4731 32.1493 19.6435 31.9771C19.8138 31.8048 19.9094 31.5723 19.9094 31.33V31.19C19.9094 30.9487 19.8135 30.7172 19.6428 30.5466C19.4722 30.3759 19.2407 30.28 18.9994 30.28H16.5494Z" fill="white"/>
</svg>
