<svg width="23" height="23" viewBox="0 0 23 23" fill="none" xmlns="http://www.w3.org/2000/svg">
<path d="M20.1774 11.4994H18.2607C18.0065 11.4994 17.7628 11.6003 17.5831 11.78C17.4033 11.9598 17.3024 12.2035 17.3024 12.4577C17.3024 12.7119 17.4033 12.9556 17.5831 13.1353C17.7628 13.3151 18.0065 13.416 18.2607 13.416V15.3327H17.1258C17.2394 15.0258 17.2991 14.7016 17.3024 14.3744C17.3025 13.7415 17.0937 13.1262 16.7084 12.6241C16.3232 12.122 15.783 11.761 15.1716 11.5972C14.5603 11.4335 13.912 11.476 13.3273 11.7183C12.7426 11.9606 12.2542 12.3891 11.938 12.9373C11.8744 13.0464 11.8331 13.1669 11.8162 13.292C11.7994 13.417 11.8074 13.5442 11.8399 13.6662C11.8724 13.7881 11.9286 13.9025 12.0053 14.0026C12.0821 14.1028 12.1779 14.1868 12.2872 14.2499C12.3966 14.3129 12.5173 14.3537 12.6424 14.37C12.7676 14.3863 12.8947 14.3776 13.0165 14.3446C13.1383 14.3116 13.2524 14.2549 13.3522 14.1777C13.452 14.1005 13.5356 14.0043 13.5982 13.8947C13.6824 13.7493 13.8033 13.6285 13.9488 13.5445C14.0943 13.4605 14.2593 13.4162 14.4274 13.416C14.6815 13.416 14.9253 13.517 15.105 13.6967C15.2847 13.8764 15.3857 14.1202 15.3857 14.3744C15.3857 14.6285 15.2847 14.8723 15.105 15.052C14.9253 15.2317 14.6815 15.3327 14.4274 15.3327C14.1732 15.3327 13.9295 15.4337 13.7497 15.6134C13.57 15.7931 13.469 16.0369 13.469 16.291C13.469 16.5452 13.57 16.7889 13.7497 16.9687C13.9295 17.1484 14.1732 17.2494 14.4274 17.2494C14.6815 17.2494 14.9253 17.3503 15.105 17.53C15.2847 17.7098 15.3857 17.9535 15.3857 18.2077C15.3857 18.4619 15.2847 18.7056 15.105 18.8853C14.9253 19.0651 14.6815 19.166 14.4274 19.166C14.2593 19.1658 14.0943 19.1215 13.9488 19.0375C13.8033 18.9535 13.6824 18.8328 13.5982 18.6873C13.5356 18.5777 13.4521 18.4815 13.3522 18.4043C13.2524 18.3271 13.1383 18.2704 13.0165 18.2374C12.8947 18.2044 12.7676 18.1958 12.6424 18.212C12.5173 18.2283 12.3966 18.2691 12.2872 18.3322C12.1779 18.3952 12.0821 18.4792 12.0054 18.5794C11.9286 18.6796 11.8724 18.7939 11.8399 18.9159C11.8075 19.0378 11.7994 19.165 11.8162 19.2901C11.8331 19.4151 11.8744 19.5357 11.938 19.6447C12.2543 20.1929 12.7426 20.6214 13.3273 20.8637C13.912 21.106 14.5603 21.1485 15.1716 20.9848C15.783 20.821 16.3232 20.4601 16.7084 19.9579C17.0937 19.4558 17.3025 18.8406 17.3024 18.2077C17.2991 17.8805 17.2394 17.5562 17.1258 17.2494H18.2607V20.1244C18.2607 20.3785 18.3617 20.6223 18.5414 20.802C18.7211 20.9817 18.9649 21.0827 19.219 21.0827C19.4732 21.0827 19.717 20.9817 19.8967 20.802C20.0764 20.6223 20.1774 20.3785 20.1774 20.1244V13.416C20.4315 13.416 20.6753 13.3151 20.855 13.1353C21.0347 12.9556 21.1357 12.7119 21.1357 12.4577C21.1357 12.2035 21.0347 11.9598 20.855 11.78C20.6753 11.6003 20.4315 11.4994 20.1774 11.4994ZM8.7064 10.7736C8.76808 11.0201 8.92514 11.2319 9.14304 11.3626C9.25093 11.4273 9.37051 11.4701 9.49495 11.4886C9.61938 11.5071 9.74624 11.5009 9.86828 11.4703C9.99032 11.4398 10.1052 11.3855 10.2062 11.3106C10.3073 11.2357 10.3926 11.1416 10.4573 11.0337C10.522 10.9258 10.5648 10.8062 10.5833 10.6818C10.6018 10.5574 10.5956 10.4305 10.565 10.3085L8.8814 3.57158C8.76322 3.09871 8.49036 2.67891 8.10619 2.37893C7.72202 2.07896 7.2486 1.91602 6.76118 1.91602C6.27377 1.91602 5.80034 2.07896 5.41617 2.37893C5.032 2.67891 4.75914 3.09871 4.64096 3.57158L2.9564 10.3085C2.89472 10.5549 2.93347 10.8158 3.06414 11.0337C3.1948 11.2516 3.40668 11.4087 3.65315 11.4703C3.89962 11.532 4.1605 11.4933 4.37839 11.3626C4.59629 11.2319 4.75335 11.0201 4.81504 10.7736L5.35246 8.62435H8.16926L8.7064 10.7736ZM5.83174 6.70769L6.4996 4.03671C6.51985 3.98375 6.5557 3.93818 6.60241 3.90603C6.64912 3.87389 6.70448 3.85667 6.76118 3.85667C6.81788 3.85667 6.87325 3.87389 6.91995 3.90603C6.96666 3.93818 7.00251 3.98375 7.02276 4.03671L7.69027 6.70769H5.83174ZM13.469 6.70769H14.4274C14.6815 6.70794 14.9251 6.80899 15.1047 6.98866C15.2844 7.16832 15.3855 7.41193 15.3857 7.66602V8.62435C15.3857 8.87852 15.4867 9.12228 15.6664 9.302C15.8461 9.48172 16.0899 9.58269 16.344 9.58269C16.5982 9.58269 16.842 9.48172 17.0217 9.302C17.2014 9.12228 17.3024 8.87852 17.3024 8.62435V7.66602C17.3015 6.90378 16.9984 6.17299 16.4594 5.63401C15.9204 5.09502 15.1896 4.79185 14.4274 4.79102H13.469C13.2149 4.79102 12.9711 4.89199 12.7914 5.07171C12.6117 5.25143 12.5107 5.49519 12.5107 5.74935C12.5107 6.00352 12.6117 6.24728 12.7914 6.427C12.9711 6.60672 13.2149 6.70769 13.469 6.70769ZM9.63571 15.3327H8.67738C8.42329 15.3324 8.17968 15.2314 8.00001 15.0517C7.82035 14.8721 7.7193 14.6284 7.71904 14.3744V13.416C7.71904 13.1619 7.61808 12.9181 7.43835 12.7384C7.25863 12.5587 7.01488 12.4577 6.76071 12.4577C6.50654 12.4577 6.26279 12.5587 6.08307 12.7384C5.90334 12.9181 5.80238 13.1619 5.80238 13.416V14.3744C5.80321 15.1366 6.10638 15.8674 6.64536 16.4064C7.18435 16.9454 7.91514 17.2485 8.67738 17.2494H9.63571C9.88988 17.2494 10.1336 17.1484 10.3134 16.9687C10.4931 16.7889 10.594 16.5452 10.594 16.291C10.594 16.0369 10.4931 15.7931 10.3134 15.6134C10.1336 15.4337 9.88988 15.3327 9.63571 15.3327Z" fill="black"/>
</svg>
