<svg width="43" height="43" viewBox="0 0 43 43" fill="none" xmlns="http://www.w3.org/2000/svg">
<path d="M15.7504 18.8652C16.4053 18.8652 16.9363 18.3341 16.9363 17.6792V16.1635C16.9363 15.5086 16.4057 14.9775 15.7504 14.9775C15.0951 14.9775 14.5645 15.5086 14.5645 16.1635V17.6792C14.5645 18.3341 15.0951 18.8652 15.7504 18.8652ZM15.7504 24.9492C16.4053 24.9492 16.9363 24.4182 16.9363 23.7633V22.2475C16.9363 21.5927 16.4057 21.0616 15.7504 21.0616C15.0951 21.0616 14.5645 21.5927 14.5645 22.2475V23.7633C14.5645 24.4182 15.0951 24.9492 15.7504 24.9492Z" fill="black"/>
<path d="M38.2992 18.4973C37.146 18.3094 36.0039 18.026 34.9044 17.6549C34.8038 17.621 34.7053 17.5784 34.6051 17.5427C34.7423 17.5169 34.8816 17.4997 35.0244 17.4997C35.6793 17.4997 36.2103 16.9687 36.2103 16.3138V13.4018C36.2103 10.6584 33.9786 8.42627 31.2352 8.42627H15.7548H15.7513H15.7479H8.68213C5.93873 8.42627 3.70703 10.6584 3.70703 13.4018V16.3138C3.70703 16.9687 4.23765 17.4997 4.89297 17.4997C6.12191 17.4997 7.12209 18.502 7.12209 19.7336C7.12209 20.9651 6.12191 21.9674 4.89297 21.9674C4.23808 21.9674 3.70703 22.4984 3.70703 23.1533V26.5254C3.70703 29.2688 5.93873 31.5009 8.68213 31.5009H15.7479H15.7513H15.7548H27.0646C28.5215 33.0782 30.1864 33.9893 31.4119 34.4869C31.5547 34.5449 31.7065 34.5741 31.8578 34.5741C32.0092 34.5741 32.1606 34.5449 32.3038 34.4869C33.7503 33.8999 35.8113 32.7471 37.4126 30.5945L37.4491 30.5455C38.6389 28.9295 39.2943 26.8956 39.2943 24.8187V19.6673C39.2943 19.086 38.8729 18.591 38.2992 18.4973ZM6.07762 26.5254V24.184C8.04143 23.659 9.49225 21.8629 9.49225 19.7336C9.49225 17.6042 8.04143 15.8081 6.07762 15.2831V13.4018C6.07762 11.966 7.24593 10.7977 8.68127 10.7977H14.565V12.0632C14.565 12.7181 15.0956 13.2491 15.7509 13.2491C16.4062 13.2491 16.9368 12.7181 16.9368 12.0632V10.7977H31.2348C32.6705 10.7977 33.8384 11.966 33.8384 13.4018V15.2813C33.0391 15.4925 32.3124 15.9151 31.7344 16.5077C31.5977 16.5219 31.4622 16.5528 31.3358 16.6148C30.5223 17.0138 29.673 17.3638 28.8113 17.6549C27.7122 18.026 26.5701 18.3098 25.4169 18.4973C24.8433 18.5906 24.4219 19.0864 24.4219 19.6678V24.8192C24.4219 26.3276 24.7714 27.8107 25.4164 29.1299H16.9368V27.8644C16.9368 27.2095 16.4062 26.6785 15.7509 26.6785C15.0956 26.6785 14.565 27.2095 14.565 27.8644V29.1299H8.68127C7.2455 29.1299 6.07762 27.9612 6.07762 26.5254ZM36.9224 24.8187C36.9224 26.3934 36.4313 27.9276 35.5133 29.1738C34.391 30.6822 32.9754 31.5792 31.8578 32.0956C30.7394 31.5783 29.3208 30.6779 28.1766 29.1389C27.2844 27.9272 26.7929 26.393 26.7929 24.8183V20.6537C27.7346 20.459 28.6651 20.207 29.5698 19.9012C30.346 19.6389 31.1131 19.3341 31.8574 18.9914C32.6022 19.3337 33.3689 19.6389 34.1454 19.9012C35.0502 20.2065 35.9807 20.4585 36.9224 20.6537V24.8187Z" fill="black"/>
<path d="M31.3749 25.4407L30.5239 24.5898C30.0608 24.1267 29.31 24.1267 28.8473 24.5898C28.3842 25.0529 28.3842 25.8037 28.8473 26.2668L30.5364 27.9558C30.7681 28.1872 31.0713 28.3033 31.3749 28.3033C31.6785 28.3033 31.982 28.1876 32.2134 27.9558L35.3808 24.788C35.8439 24.3249 35.8439 23.5741 35.3808 23.111C34.9176 22.6479 34.1673 22.6479 33.7042 23.111L31.3749 25.4403V25.4407Z" fill="black"/>
</svg>
