<svg width="22" height="22" viewBox="0 0 22 22" fill="none" xmlns="http://www.w3.org/2000/svg">
<path d="M8.25065 9.16732C8.00754 9.16732 7.77438 9.26389 7.60247 9.4358C7.43056 9.60771 7.33398 9.84087 7.33398 10.084V11.9173C7.33398 12.1604 7.43056 12.3936 7.60247 12.5655C7.77438 12.7374 8.00754 12.834 8.25065 12.834C8.49377 12.834 8.72692 12.7374 8.89883 12.5655C9.07074 12.3936 9.16732 12.1604 9.16732 11.9173V10.084C9.16732 9.84087 9.07074 9.60771 8.89883 9.4358C8.72692 9.26389 8.49377 9.16732 8.25065 9.16732ZM19.2507 10.084C19.4938 10.084 19.7269 9.98741 19.8988 9.8155C20.0707 9.64359 20.1673 9.41043 20.1673 9.16732V5.50065C20.1673 5.25754 20.0707 5.02438 19.8988 4.85247C19.7269 4.68056 19.4938 4.58398 19.2507 4.58398H2.75065C2.50754 4.58398 2.27438 4.68056 2.10247 4.85247C1.93056 5.02438 1.83398 5.25754 1.83398 5.50065V9.16732C1.83398 9.41043 1.93056 9.64359 2.10247 9.8155C2.27438 9.98741 2.50754 10.084 2.75065 10.084C2.99377 10.084 3.22692 10.1806 3.39883 10.3525C3.57074 10.5244 3.66732 10.7575 3.66732 11.0007C3.66732 11.2438 3.57074 11.4769 3.39883 11.6488C3.22692 11.8207 2.99377 11.9173 2.75065 11.9173C2.50754 11.9173 2.27438 12.0139 2.10247 12.1858C1.93056 12.3577 1.83398 12.5909 1.83398 12.834V16.5007C1.83398 16.7438 1.93056 16.9769 2.10247 17.1488C2.27438 17.3207 2.50754 17.4173 2.75065 17.4173H19.2507C19.4938 17.4173 19.7269 17.3207 19.8988 17.1488C20.0707 16.9769 20.1673 16.7438 20.1673 16.5007V12.834C20.1673 12.5909 20.0707 12.3577 19.8988 12.1858C19.7269 12.0139 19.4938 11.9173 19.2507 11.9173C19.0075 11.9173 18.7744 11.8207 18.6025 11.6488C18.4306 11.4769 18.334 11.2438 18.334 11.0007C18.334 10.7575 18.4306 10.5244 18.6025 10.3525C18.7744 10.1806 19.0075 10.084 19.2507 10.084ZM18.334 8.41565C17.8031 8.60834 17.3444 8.95981 17.0203 9.4223C16.6961 9.88479 16.5222 10.4359 16.5222 11.0007C16.5222 11.5654 16.6961 12.1165 17.0203 12.579C17.3444 13.0415 17.8031 13.393 18.334 13.5857V15.584H9.16732C9.16732 15.3409 9.07074 15.1077 8.89883 14.9358C8.72692 14.7639 8.49377 14.6673 8.25065 14.6673C8.00754 14.6673 7.77438 14.7639 7.60247 14.9358C7.43056 15.1077 7.33398 15.3409 7.33398 15.584H3.66732V13.5857C4.19821 13.393 4.6569 13.0415 4.98105 12.579C5.3052 12.1165 5.47909 11.5654 5.47909 11.0007C5.47909 10.4359 5.3052 9.88479 4.98105 9.4223C4.6569 8.95981 4.19821 8.60834 3.66732 8.41565V6.41732H7.33398C7.33398 6.66043 7.43056 6.89359 7.60247 7.0655C7.77438 7.23741 8.00754 7.33398 8.25065 7.33398C8.49377 7.33398 8.72692 7.23741 8.89883 7.0655C9.07074 6.89359 9.16732 6.66043 9.16732 6.41732H18.334V8.41565Z" fill="black"/>
</svg>
