<svg width="23" height="23" viewBox="0 0 23 23" fill="none" xmlns="http://www.w3.org/2000/svg">
<path d="M11.7882 11.7102C12.2995 11.2676 12.7096 10.7201 12.9907 10.105C13.2718 9.48988 13.4173 8.82149 13.4173 8.14518C13.4173 6.87435 12.9125 5.65557 12.0139 4.75696C11.1153 3.85835 9.89648 3.35352 8.62565 3.35352C7.35482 3.35352 6.13604 3.85835 5.23743 4.75696C4.33882 5.65557 3.83398 6.87435 3.83398 8.14518C3.83398 8.82149 3.97946 9.48988 4.26056 10.105C4.54167 10.7201 4.95181 11.2676 5.46315 11.7102C4.12162 12.3177 2.98343 13.2986 2.18467 14.5359C1.38592 15.7731 0.960395 17.2142 0.958984 18.6868C0.958984 18.941 1.05995 19.1848 1.23967 19.3645C1.4194 19.5442 1.66315 19.6452 1.91732 19.6452C2.17148 19.6452 2.41524 19.5442 2.59496 19.3645C2.77468 19.1848 2.87565 18.941 2.87565 18.6868C2.87565 17.1619 3.48145 15.6993 4.55979 14.621C5.63812 13.5427 7.10066 12.9368 8.62565 12.9368C10.1506 12.9368 11.6132 13.5427 12.6915 14.621C13.7698 15.6993 14.3757 17.1619 14.3757 18.6868C14.3757 18.941 14.4766 19.1848 14.6563 19.3645C14.8361 19.5442 15.0798 19.6452 15.334 19.6452C15.5882 19.6452 15.8319 19.5442 16.0116 19.3645C16.1914 19.1848 16.2923 18.941 16.2923 18.6868C16.2909 17.2142 15.8654 15.7731 15.0666 14.5359C14.2679 13.2986 13.1297 12.3177 11.7882 11.7102ZM8.62565 11.0202C8.05703 11.0202 7.50118 10.8516 7.02839 10.5357C6.55559 10.2197 6.1871 9.77073 5.9695 9.2454C5.7519 8.72006 5.69496 8.14199 5.80589 7.5843C5.91683 7.0266 6.19064 6.51433 6.59272 6.11225C6.99479 5.71017 7.50707 5.43636 8.06477 5.32543C8.62246 5.21449 9.20053 5.27143 9.72587 5.48903C10.2512 5.70663 10.7002 6.07513 11.0161 6.54792C11.332 7.02071 11.5007 7.57656 11.5007 8.14518C11.5007 8.90768 11.1978 9.63895 10.6586 10.1781C10.1194 10.7173 9.38815 11.0202 8.62565 11.0202ZM17.9598 11.3268C18.5731 10.6362 18.9737 9.78303 19.1135 8.87001C19.2532 7.95699 19.126 7.02304 18.7473 6.1806C18.3686 5.33815 17.7545 4.62311 16.9789 4.12155C16.2033 3.61998 15.2993 3.35327 14.3757 3.35352C14.1215 3.35352 13.8777 3.45448 13.698 3.63421C13.5183 3.81393 13.4173 4.05768 13.4173 4.31185C13.4173 4.56602 13.5183 4.80977 13.698 4.98949C13.8777 5.16922 14.1215 5.27018 14.3757 5.27018C15.1381 5.27018 15.8694 5.57308 16.4086 6.11225C16.9478 6.65142 17.2507 7.38268 17.2507 8.14518C17.2493 8.64854 17.1158 9.14271 16.8635 9.57829C16.6113 10.0139 16.2491 10.3756 15.8132 10.6273C15.6711 10.7092 15.5524 10.8263 15.4685 10.9672C15.3846 11.1082 15.3383 11.2683 15.334 11.4323C15.33 11.595 15.3675 11.756 15.4429 11.9002C15.5184 12.0444 15.6293 12.167 15.7652 12.2564L16.139 12.5056L16.2636 12.5727C17.4187 13.1206 18.3933 13.9872 19.0724 15.0704C19.7516 16.1536 20.107 17.4084 20.0969 18.6868C20.0969 18.941 20.1979 19.1848 20.3776 19.3645C20.5573 19.5442 20.8011 19.6452 21.0552 19.6452C21.3094 19.6452 21.5532 19.5442 21.7329 19.3645C21.9126 19.1848 22.0136 18.941 22.0136 18.6868C22.0214 17.2162 21.6531 15.768 20.9436 14.4798C20.2341 13.1916 19.2069 12.1063 17.9598 11.3268Z" fill="black"/>
</svg>
