<svg width="12" height="15" viewBox="0 0 12 15" fill="none" xmlns="http://www.w3.org/2000/svg">
<g clip-path="url(#clip0_161_4488)">
<path d="M1.5 8.68421C1.5 9.36842 1.63125 10.0166 1.89375 10.6287C2.15625 11.2408 2.53125 11.7768 3.01875 12.2368C3.00625 12.1711 3 12.1118 3 12.0592V11.8816C3 11.4605 3.075 11.0658 3.225 10.6974C3.375 10.3289 3.59375 9.99342 3.88125 9.69079L6 7.5L8.11875 9.69079C8.40625 9.99342 8.625 10.3289 8.775 10.6974C8.925 11.0658 9 11.4605 9 11.8816V12.0592C9 12.1118 8.99375 12.1711 8.98125 12.2368C9.46875 11.7763 9.84375 11.2403 10.1063 10.6287C10.3688 10.0171 10.5 9.36895 10.5 8.68421C10.5 8.02632 10.3845 7.40447 10.1535 6.81868C9.9225 6.23289 9.588 5.71 9.15 5.25C8.9 5.42105 8.6375 5.54947 8.3625 5.63526C8.0875 5.72105 7.80625 5.76368 7.51875 5.76316C6.74375 5.76316 6.07175 5.49342 5.50275 4.95395C4.93375 4.41447 4.606 3.75 4.5195 2.96053C4.0315 3.39474 3.6 3.84553 3.225 4.3129C2.85 4.78026 2.53425 5.25395 2.27775 5.73395C2.02125 6.21395 1.82775 6.70395 1.69725 7.20395C1.56675 7.70395 1.501 8.19737 1.5 8.68421ZM6 9.71053L4.93125 10.8158C4.79375 10.9605 4.6875 11.125 4.6125 11.3092C4.5375 11.4934 4.5 11.6842 4.5 11.8816C4.5 12.3026 4.64675 12.6645 4.94025 12.9671C5.23375 13.2697 5.587 13.4211 6 13.4211C6.413 13.4211 6.766 13.2697 7.059 12.9671C7.352 12.6645 7.499 12.3026 7.5 11.8816C7.5 11.6711 7.4625 11.4771 7.3875 11.2997C7.3125 11.1224 7.20625 10.9611 7.06875 10.8158L6 9.71053ZM6 0V2.60526C6 3.05263 6.147 3.42763 6.441 3.73026C6.735 4.03289 7.09425 4.18421 7.51875 4.18421C7.74375 4.18421 7.95325 4.135 8.14725 4.03658C8.34125 3.93816 8.513 3.79 8.6625 3.59211L9 3.15789C9.925 3.71053 10.6562 4.48026 11.1937 5.46711C11.7312 6.45395 12 7.52632 12 8.68421C12 10.4474 11.4187 11.9408 10.2562 13.1645C9.09375 14.3882 7.675 15 6 15C4.325 15 2.90625 14.3882 1.74375 13.1645C0.58125 11.9408 0 10.4474 0 8.68421C0 6.98684 0.5405 5.375 1.6215 3.84868C2.7025 2.32237 4.162 1.03947 6 0Z" fill="black"/>
</g>
<defs>
<clipPath id="clip0_161_4488">
<rect width="12" height="15" fill="white"/>
</clipPath>
</defs>
</svg>
