<svg width="17" height="17" viewBox="0 0 17 17" fill="none" xmlns="http://www.w3.org/2000/svg">
<path d="M8.5 0L9.12638 1.69279C9.94774 3.91248 10.3584 5.02233 11.1681 5.83195C11.9777 6.64158 13.0875 7.05226 15.3072 7.87362L17 8.5L15.3072 9.12638C13.0875 9.94774 11.9777 10.3584 11.1681 11.1681C10.3584 11.9777 9.94774 13.0875 9.12638 15.3072L8.5 17L7.87362 15.3072C7.05226 13.0875 6.64156 11.9777 5.83195 11.1681C5.02233 10.3584 3.91248 9.94774 1.69279 9.12638L0 8.5L1.69279 7.87362C3.91248 7.05226 5.02233 6.64158 5.83195 5.83195C6.64158 5.02233 7.05226 3.91248 7.87362 1.69279L8.5 0Z" fill="url(#paint0_linear_161_4557)"/>
<defs>
<linearGradient id="paint0_linear_161_4557" x1="5.51948" y1="4.63636" x2="17.2065" y2="17.2341" gradientUnits="userSpaceOnUse">
<stop stop-color="#866BFF"/>
<stop offset="1" stop-color="#B26BE9"/>
</linearGradient>
</defs>
</svg>
