<svg width="70" height="70" viewBox="0 0 70 70" fill="none" xmlns="http://www.w3.org/2000/svg">
<g clip-path="url(#clip0_599_1012)">
<path d="M34.7812 18.7031C25.9219 18.7031 18.7031 25.9219 18.7031 34.7812C18.7031 43.6406 25.9219 50.8594 34.7812 50.8594C43.6406 50.8594 50.8594 43.6406 50.8594 34.7812C50.8594 25.9219 43.6406 18.7031 34.7812 18.7031ZM34.7812 48.7812C27.0156 48.7812 20.7812 42.5469 20.7812 34.7812C20.7812 27.0156 27.125 20.7812 34.7812 20.7812C42.5469 20.7812 48.7812 27.0156 48.7812 34.7812C48.7812 42.5469 42.5469 48.7812 34.7812 48.7812Z" fill="#686868"/>
<path d="M34.7812 12.3594C22.4218 12.3594 12.3593 22.4219 12.3593 34.7812C12.3593 47.1406 22.4218 57.2031 34.7812 57.2031C47.1405 57.2031 57.203 47.1406 57.203 34.7812C57.3124 22.4219 47.1405 12.3594 34.7812 12.3594ZM34.7812 55.125C23.5155 55.125 14.4374 46.0469 14.4374 34.7812C14.4374 23.5156 23.5155 14.4375 34.7812 14.4375C46.0468 14.4375 55.1249 23.5156 55.1249 34.7812C55.1249 46.0469 46.0468 55.125 34.7812 55.125ZM69.9999 20.7812L69.7812 8.53125C69.7812 7.98438 69.3437 7.4375 68.6874 7.4375C68.1405 7.4375 67.5937 7.98438 67.5937 8.53125L67.8124 19.7969H66.4999V8.53125C66.4999 7.98438 66.0624 7.4375 65.4062 7.4375C64.8593 7.4375 64.3124 7.875 64.3124 8.53125L64.4218 19.7969H62.8905L62.9999 8.53125C62.9999 7.98438 62.5624 7.4375 61.9062 7.4375C61.3593 7.4375 60.8124 7.875 60.8124 8.53125L60.703 19.7969H59.3905L59.6093 8.64062C59.6093 8.09375 59.1718 7.54687 58.5155 7.54687C57.9687 7.54687 57.4218 7.98437 57.4218 8.64062L57.3124 20.7812V24.0625C57.3124 24.8281 57.5312 25.4844 58.078 26.0312L60.0468 28.3281C60.1562 28.5469 60.2655 28.7656 60.2655 28.9844L59.2812 57.75C59.2812 58.9531 59.7187 60.2656 60.5937 61.1406C61.3593 62.0156 62.453 62.4531 63.6562 62.4531C64.8593 62.4531 65.953 62.0156 66.7187 61.1406C67.5937 60.2656 68.0312 59.0625 68.0312 57.75L67.0468 28.9844C67.0468 28.7656 67.1562 28.5469 67.2655 28.3281L69.2343 26.0312C69.6718 25.4844 69.9999 24.8281 69.9999 24.0625V20.7812ZM67.9218 24.1719C67.9218 24.3906 67.8124 24.6094 67.703 24.7188L65.6249 27.0156C65.078 27.5625 64.8593 28.3281 64.8593 29.0938L65.8437 57.8594C65.8437 58.5156 65.6249 59.1719 65.1874 59.7188C64.3124 60.5938 62.8905 60.5938 62.1249 59.7188C61.6874 59.2812 61.4687 58.625 61.4687 57.8594L62.453 29.0938C62.453 28.3281 62.2343 27.5625 61.6874 27.0156L59.7187 24.7188C59.6093 24.5 59.4999 24.3906 59.4999 24.1719V21.9844H61.9062H65.5155H67.9218V24.1719ZM2.51554 7.65625C2.18742 7.4375 1.85929 7.4375 1.53117 7.65625C1.20304 7.875 0.984291 8.20312 0.984291 8.53125V40.0312L-8.42642e-05 58.0781C-0.109459 59.2812 0.328041 60.375 1.20304 61.25C1.96867 62.125 3.06242 62.5625 4.26554 62.5625C5.46867 62.5625 6.56242 62.125 7.32804 61.25C8.09367 60.375 8.53117 59.2812 8.53117 58.0781L7.54679 41.125H8.20304C8.74992 41.125 9.18742 40.6875 9.29679 40.1406C12.4687 13.125 2.95304 7.76562 2.51554 7.65625ZM5.79679 59.7188C5.03117 60.5938 3.49992 60.5938 2.73429 59.7188C2.29679 59.2812 2.07804 58.7344 2.18742 58.1875L3.17179 41.125H5.46867L6.45304 58.1875C6.34367 58.7344 6.12492 59.2812 5.79679 59.7188ZM7.21867 38.9375H6.45304H3.17179V10.9375C5.35929 13.6719 9.18742 21 7.21867 38.9375Z" fill="#686868"/>
</g>
<defs>
<clipPath id="clip0_599_1012">
<rect width="70" height="70" fill="white"/>
</clipPath>
</defs>
</svg>
