<svg width="56" height="56" viewBox="0 0 56 56" fill="none" xmlns="http://www.w3.org/2000/svg">
<path d="M22.2952 48.6541C23.4601 50.1164 25.1709 51.0627 27.0489 51.2837C28.9268 51.5047 30.8171 50.9821 32.3013 49.8316C32.7578 49.4913 33.1685 49.0957 33.5237 48.6541M8.16892 32.1699V31.659C8.24388 30.1472 8.72839 28.6825 9.57249 27.4157C10.9775 25.8941 11.9393 24.0294 12.357 22.0173C12.357 20.4622 12.357 18.8848 12.4928 17.3297C13.1946 9.84296 20.5973 4.66666 27.9095 4.66666H28.0906C35.4027 4.66666 42.8054 9.84296 43.5298 17.3297C43.6657 18.8848 43.5298 20.4622 43.643 22.0173C44.0663 24.034 45.0272 25.9045 46.4275 27.438C47.2779 28.6935 47.7632 30.1529 47.8311 31.659V32.1477C47.8816 34.1788 47.1821 36.1592 45.8616 37.7239C44.1166 39.5534 41.7486 40.6916 39.2059 40.923C31.75 41.7228 24.2274 41.7228 16.7714 40.923C14.2317 40.6816 11.8671 39.5451 10.1158 37.7239C8.81566 36.158 8.12555 34.1893 8.16892 32.1699Z" stroke="#686868" stroke-width="3.5" stroke-linecap="round" stroke-linejoin="round"/>
</svg>
