<svg width="41" height="41" viewBox="0 0 41 41" fill="none" xmlns="http://www.w3.org/2000/svg">
<path d="M36.8135 3.49875e-05H24.2538C23.9783 -0.00155777 23.7053 0.0512451 23.4502 0.155416C23.1952 0.259587 22.9632 0.413076 22.7676 0.607083L1.22786 22.084C0.838607 22.4729 0.529812 22.9346 0.319127 23.4428C0.108443 23.9511 0 24.4958 0 25.046C0 25.5962 0.108443 26.141 0.319127 26.6492C0.529812 27.1575 0.838607 27.6192 1.22786 28.008L12.992 39.7722C13.7736 40.5584 14.835 41.0025 15.9436 41.0072C16.496 41.0076 17.0431 40.8987 17.5532 40.6868C18.0634 40.4748 18.5265 40.164 18.916 39.7722L40.393 18.2115C40.7797 17.8216 40.9977 17.2953 41 16.7462V4.18658C41 3.07624 40.5589 2.01137 39.7738 1.22624C38.9887 0.441116 37.9238 3.49875e-05 36.8135 3.49875e-05Z" fill="#686868"/>
<path d="M29.0169 12.5594C30.751 12.5594 32.1568 11.1536 32.1568 9.41948C32.1568 7.68536 30.751 6.27957 29.0169 6.27957C27.2827 6.27957 25.877 7.68536 25.877 9.41948C25.877 11.1536 27.2827 12.5594 29.0169 12.5594Z" fill="white"/>
</svg>
