<svg width="76" height="76" viewBox="0 0 76 76" fill="none" xmlns="http://www.w3.org/2000/svg">
<path d="M29.5938 25.3438C32.1402 25.3438 34.2706 23.5626 34.8072 21.1782C34.9449 20.5662 35.0137 20.2602 35.1764 20.1301C35.3391 20 35.601 20 36.125 20H48.5938C56.9743 20 61.1646 20 63.8798 22.461C64.1102 22.6698 64.3305 22.8898 64.5389 23.1202C67 25.8354 67 30.0257 67 38.4062C67 46.7868 67 50.9771 64.5389 53.6923C64.3305 53.9227 64.1102 54.1427 63.8798 54.3515C61.1646 56.8125 56.9743 56.8125 48.5938 56.8125H36.125C35.601 56.8125 35.3391 56.8125 35.1764 56.6824C35.0137 56.5523 34.9449 56.2463 34.8072 55.6343C34.2706 53.2499 32.1402 51.4688 29.5938 51.4688C27.0561 51.4688 24.9316 53.2376 24.3859 55.6096C24.2438 56.2273 24.1728 56.5362 24.0062 56.6658C23.8396 56.7955 23.5766 56.7898 23.0505 56.7783C18.0961 56.6702 15.1827 56.2208 13.1202 54.3515C12.8898 54.1427 12.6698 53.9227 12.461 53.6923C10 50.9771 10 46.7868 10 38.4062C10 30.0257 10 25.8354 12.461 23.1202C12.6698 22.8898 12.8898 22.6698 13.1202 22.461C15.1827 20.5917 18.0961 20.1423 23.0505 20.0342C23.5766 20.0227 23.8396 20.017 24.0062 20.1467C24.1728 20.2763 24.2438 20.5852 24.3859 21.2029C24.9316 23.5749 27.0561 25.3438 29.5938 25.3438Z" stroke="#686868" stroke-width="4"/>
<path d="M29.0938 26.7188V49.2812" stroke="#686868" stroke-width="4" stroke-linecap="round" stroke-dasharray="9 9"/>
</svg>
