<svg width="66" height="66" viewBox="0 0 66 66" fill="none" xmlns="http://www.w3.org/2000/svg">
<path d="M57.75 28.875H55V26.125C55 25.3957 54.7103 24.6962 54.1945 24.1805C53.6788 23.6647 52.9793 23.375 52.25 23.375C51.5207 23.375 50.8212 23.6647 50.3055 24.1805C49.7897 24.6962 49.5 25.3957 49.5 26.125V28.875H46.75C46.0207 28.875 45.3212 29.1647 44.8055 29.6805C44.2897 30.1962 44 30.8957 44 31.625C44 32.3543 44.2897 33.0538 44.8055 33.5695C45.3212 34.0853 46.0207 34.375 46.75 34.375H49.5V37.125C49.5 37.8543 49.7897 38.5538 50.3055 39.0695C50.8212 39.5853 51.5207 39.875 52.25 39.875C52.9793 39.875 53.6788 39.5853 54.1945 39.0695C54.7103 38.5538 55 37.8543 55 37.125V34.375H57.75C58.4793 34.375 59.1788 34.0853 59.6945 33.5695C60.2103 33.0538 60.5 32.3543 60.5 31.625C60.5 30.8957 60.2103 30.1962 59.6945 29.6805C59.1788 29.1647 58.4793 28.875 57.75 28.875ZM36.575 33.605C38.0423 32.3349 39.2193 30.7639 40.0259 28.9988C40.8325 27.2337 41.25 25.3157 41.25 23.375C41.25 19.7283 39.8013 16.2309 37.2227 13.6523C34.6441 11.0737 31.1467 9.625 27.5 9.625C23.8533 9.625 20.3559 11.0737 17.7773 13.6523C15.1987 16.2309 13.75 19.7283 13.75 23.375C13.75 25.3157 14.1675 27.2337 14.9741 28.9988C15.7807 30.7639 16.9577 32.3349 18.425 33.605C14.5754 35.3482 11.3093 38.1632 9.0172 41.7135C6.72511 45.2638 5.50405 49.3991 5.5 53.625C5.5 54.3543 5.78973 55.0538 6.30546 55.5695C6.82118 56.0853 7.52065 56.375 8.25 56.375C8.97935 56.375 9.67882 56.0853 10.1945 55.5695C10.7103 55.0538 11 54.3543 11 53.625C11 49.2489 12.7384 45.0521 15.8327 41.9577C18.9271 38.8634 23.1239 37.125 27.5 37.125C31.8761 37.125 36.0729 38.8634 39.1673 41.9577C42.2616 45.0521 44 49.2489 44 53.625C44 54.3543 44.2897 55.0538 44.8055 55.5695C45.3212 56.0853 46.0207 56.375 46.75 56.375C47.4793 56.375 48.1788 56.0853 48.6945 55.5695C49.2103 55.0538 49.5 54.3543 49.5 53.625C49.496 49.3991 48.2749 45.2638 45.9828 41.7135C43.6907 38.1632 40.4246 35.3482 36.575 33.605ZM27.5 31.625C25.8683 31.625 24.2733 31.1411 22.9165 30.2346C21.5598 29.3281 20.5024 28.0396 19.878 26.5321C19.2536 25.0246 19.0902 23.3658 19.4085 21.7655C19.7268 20.1652 20.5126 18.6952 21.6664 17.5414C22.8202 16.3876 24.2902 15.6019 25.8905 15.2835C27.4908 14.9652 29.1496 15.1286 30.6571 15.753C32.1646 16.3774 33.4531 17.4348 34.3596 18.7915C35.2661 20.1483 35.75 21.7433 35.75 23.375C35.75 25.563 34.8808 27.6615 33.3336 29.2086C31.7865 30.7558 29.688 31.625 27.5 31.625Z" fill="#686868"/>
</svg>
