<svg width="49" height="52" viewBox="0 0 49 52" fill="none" xmlns="http://www.w3.org/2000/svg">
<path d="M46.5938 36.75H44.8297C44.6014 35.7368 44.1971 34.7918 43.6564 33.9412L44.9059 32.6891C45.675 31.92 45.675 30.6731 44.9059 29.904C44.1367 29.1349 42.8899 29.1349 42.1208 29.904L40.8713 31.1561C40.0181 30.6154 39.0757 30.2111 38.0625 29.9827V28.2188C38.0625 27.132 37.1805 26.25 36.0938 26.25C35.007 26.25 34.125 27.132 34.125 28.2188V29.9827C33.1118 30.2111 32.1694 30.6154 31.3162 31.1561L30.0668 29.904C29.2976 29.1349 28.0507 29.1349 27.2816 29.904C26.5125 30.6731 26.5125 31.92 27.2816 32.6891L28.5311 33.9412C27.9904 34.7944 27.5861 35.7368 27.3577 36.75H25.5938C24.507 36.75 23.625 37.632 23.625 38.7188C23.625 39.8055 24.507 40.6875 25.5938 40.6875H27.3577C27.5861 41.7007 27.9904 42.6457 28.5311 43.4963L27.2816 44.7484C26.5125 45.5175 26.5125 46.7644 27.2816 47.5335C27.6649 47.9167 28.1689 48.111 28.6729 48.111C29.1769 48.111 29.6809 47.9194 30.0641 47.5335L31.3136 46.2814C32.1667 46.8221 33.1091 47.2264 34.1224 47.4547V49.2188C34.1224 50.3055 35.0044 51.1875 36.0911 51.1875C37.1779 51.1875 38.0599 50.3055 38.0599 49.2188V47.4547C39.0731 47.2264 40.0155 46.8221 40.8686 46.2814L42.1181 47.5335C42.5014 47.9167 43.0054 48.111 43.5094 48.111C44.0134 48.111 44.5174 47.9194 44.9006 47.5335C45.6698 46.7644 45.6698 45.5175 44.9006 44.7484L43.6511 43.4963C44.1919 42.6431 44.5961 41.7007 44.8245 40.6875H46.5885C47.6752 40.6875 48.5572 39.8055 48.5572 38.7188C48.5572 37.632 47.6752 36.75 46.5885 36.75H46.5938ZM39.6375 42.2625C39.6217 42.2783 39.6165 42.2993 39.6034 42.315C38.6951 43.1996 37.4614 43.7509 36.0964 43.7509C34.7314 43.7509 33.495 43.1996 32.5894 42.315C32.5736 42.2993 32.5684 42.2783 32.5553 42.2625C32.5421 42.2467 32.5185 42.2415 32.5028 42.2284C31.6181 41.3201 31.0669 40.0837 31.0669 38.7214C31.0669 37.359 31.6181 36.1226 32.5028 35.2144C32.5185 35.1986 32.5395 35.196 32.5553 35.1803C32.571 35.1645 32.5762 35.1435 32.5894 35.1278C33.4976 34.2431 34.7314 33.6919 36.0964 33.6919C37.4614 33.6919 38.6978 34.2431 39.6034 35.1278C39.6191 35.1435 39.6244 35.1645 39.6375 35.1803C39.6506 35.196 39.6743 35.2012 39.69 35.2144C40.5746 36.1226 41.1259 37.3564 41.1259 38.7214C41.1259 40.0864 40.5746 41.3228 39.69 42.2284C39.6743 42.2441 39.6533 42.2467 39.6375 42.2625ZM22.9688 24.9375C16.0939 24.9375 10.5 19.3436 10.5 12.4688C10.5 5.59387 16.0939 0 22.9688 0C29.8436 0 35.4375 5.59387 35.4375 12.4688C35.4375 19.3436 29.8436 24.9375 22.9688 24.9375ZM22.9688 3.9375C18.2647 3.9375 14.4375 7.76475 14.4375 12.4688C14.4375 17.1728 18.2647 21 22.9688 21C27.6728 21 31.5 17.1728 31.5 12.4688C31.5 7.76475 27.6728 3.9375 22.9688 3.9375ZM22.2338 49.2188C22.2338 48.132 21.3518 47.25 20.265 47.25H7.21875C5.41012 47.25 3.9375 45.7774 3.9375 43.9688C3.9375 37.8158 8.94338 32.8125 15.0938 32.8125H20.3438C21.4305 32.8125 22.3125 31.9305 22.3125 30.8438C22.3125 29.757 21.4305 28.875 20.3438 28.875H15.0938C6.7725 28.875 0 35.6449 0 43.9688C0 47.9509 3.23663 51.1875 7.21875 51.1875H20.265C21.3518 51.1875 22.2338 50.3055 22.2338 49.2188Z" fill="#686868"/>
</svg>
