<svg width="64" height="64" viewBox="0 0 64 64" fill="none" xmlns="http://www.w3.org/2000/svg">
<path d="M59.2471 38.166L60.9901 17.258C61.0601 16.422 60.7731 15.588 60.2051 14.971C59.6371 14.354 58.8311 14 57.9921 14C57.2455 13.998 56.5249 14.2745 55.9712 14.7754C55.4175 15.2764 55.0706 15.9659 54.9981 16.709L53.2701 34H44.0001C42.8971 34 42.0001 34.897 42.0001 36V38C42.0001 39.034 42.7921 39.878 43.8001 39.98L42.1921 48.821C42.1686 48.9502 42.1708 49.0828 42.1985 49.2112C42.2263 49.3396 42.279 49.4612 42.3538 49.5692C42.4285 49.6772 42.5238 49.7694 42.6342 49.8406C42.7446 49.9118 42.8679 49.9605 42.9971 49.984C43.1263 50.0075 43.2589 50.0053 43.3873 49.9776C43.5157 49.9499 43.6374 49.8971 43.7453 49.8224C43.8533 49.7476 43.9456 49.6523 44.0167 49.5419C44.0879 49.4316 44.1366 49.3082 44.1601 49.179L45.8301 40H55.5241L57.1941 49.179C57.2475 49.4342 57.3984 49.6584 57.6147 49.8039C57.831 49.9494 58.0955 50.0047 58.352 49.9581C58.6085 49.9114 58.8366 49.7664 58.9877 49.554C59.1388 49.3416 59.2011 49.0786 59.1611 48.821L57.5521 39.971C57.9958 39.9029 58.404 39.6881 58.7114 39.361C59.0188 39.0338 59.2067 38.6131 59.2471 38.166ZM44.0001 36H54.1741C54.422 36 54.6611 35.9079 54.845 35.7416C55.0288 35.5753 55.1443 35.3467 55.1691 35.1L56.9891 16.908C57.0135 16.6592 57.1296 16.4284 57.3148 16.2606C57.5001 16.0927 57.7411 15.9998 57.9911 16C58.2761 16 58.5391 16.115 58.7321 16.325C58.9261 16.535 59.0191 16.808 58.9961 17.092L57.2551 38H44.0001V36ZM20.0001 34H10.7301L9.00213 16.709C8.9297 15.9659 8.58275 15.2764 8.02907 14.7754C7.4754 14.2745 6.7548 13.998 6.00813 14C5.16913 14 4.36313 14.353 3.79513 14.97C3.22713 15.587 2.94113 16.422 3.01013 17.258L4.75313 38.166C4.79368 38.6131 4.98271 39.0336 5.29008 39.3608C5.59745 39.6879 6.00548 39.9027 6.44913 39.971L4.83913 48.821C4.79165 49.0821 4.84985 49.3514 5.00091 49.5696C5.15197 49.7878 5.38352 49.937 5.64463 49.9845C5.90573 50.032 6.175 49.9738 6.3932 49.8227C6.6114 49.6717 6.76065 49.4401 6.80813 49.179L8.47613 39.999H18.1711L19.8401 49.179C19.8876 49.44 20.0368 49.6714 20.2549 49.8224C20.473 49.9733 20.7422 50.0315 21.0031 49.984C21.2641 49.9365 21.4955 49.7873 21.6465 49.5692C21.7975 49.3511 21.8556 49.082 21.8081 48.821L20.2001 39.98C20.6921 39.9315 21.1485 39.7021 21.4811 39.3363C21.8136 38.9705 21.9986 38.4944 22.0001 38V36C22.0001 34.897 21.1031 34 20.0001 34ZM5.00313 17.092C4.99105 16.9528 5.0083 16.8126 5.05378 16.6805C5.09925 16.5484 5.17193 16.4273 5.26713 16.325C5.36102 16.222 5.47549 16.1399 5.60314 16.0839C5.73078 16.0279 5.86875 15.9993 6.00813 16C6.52813 16 6.96013 16.39 7.01213 16.908L8.83013 35.1C8.85493 35.3468 8.9706 35.5756 9.15467 35.742C9.33873 35.9083 9.57805 36.0003 9.82613 36H20.0001V38H6.74613L5.00313 17.092Z" fill="black"/>
<path d="M46 28C47.103 28 48 27.103 48 26V24C48 22.897 47.103 22 46 22H18C16.897 22 16 22.897 16 24V26C16 27.103 16.897 28 18 28H25V30C25 31.103 25.897 32 27 32H31V44H29C27.346 44 26 45.346 26 47V49C26 49.2652 26.1054 49.5196 26.2929 49.7071C26.4804 49.8946 26.7348 50 27 50H37C37.2652 50 37.5196 49.8946 37.7071 49.7071C37.8946 49.5196 38 49.2652 38 49V47C38 45.346 36.654 44 35 44H33V32H37C38.103 32 39 31.103 39 30V28H46ZM36 47V48H28V47C28 46.7348 28.1054 46.4804 28.2929 46.2929C28.4804 46.1054 28.7348 46 29 46H35C35.2652 46 35.5196 46.1054 35.7071 46.2929C35.8946 46.4804 36 46.7348 36 47ZM18 24H46L46.002 26H18V24ZM37.002 30H27V28H37L37.002 30Z" fill="black"/>
</svg>
