<svg width="57" height="57" viewBox="0 0 57 57" fill="none" xmlns="http://www.w3.org/2000/svg">
<path d="M11.5718 52.7239L9.49454 51.3411C5.20687 48.0947 -0.393031 40.5382 2.55881 35.1215C4.33087 31.8696 8.80699 30.1976 12.1986 29.3704L14.2648 28.9455C16.718 28.5055 18.4019 28.1285 19.1647 25.4514L19.607 23.6562C21.2896 17.9347 27.9209 16.7573 32.3275 20.2376L43.2452 9.46464C43.4972 9.19439 43.5558 9.03027 43.6842 8.68987C44.0908 7.61081 44.4731 7.44187 45.1957 6.61985L44.2163 5.84838C43.545 5.20138 43.9837 4.24086 44.9427 4.31307C45.5016 4.35515 45.9528 5.04477 46.29 5.44225L46.6448 5.04416C46.2918 4.8417 45.935 4.55756 45.7675 4.17417C45.3123 3.13187 47.0213 1.96889 47.562 3.84101C47.8086 3.71951 47.976 3.55991 48.1663 3.3658C47.3916 2.84464 47.128 1.95693 48.0461 1.5328C48.5935 1.50843 48.9219 1.7663 49.1509 2.25833C51.1745 0.925993 51.811 1.53671 53.4728 2.90434C55.4492 4.53083 55.4866 4.57898 54.8121 6.8506C54.6373 7.43904 54.5382 8.15371 54.1537 8.65102C53.8908 8.99101 53.473 9.19952 53.2738 9.58813C53.3048 9.80949 53.6475 9.98263 53.8012 10.1448C54.8406 11.2415 53.0294 12.8431 52.005 11.7198C51.8867 11.5901 51.6922 11.2381 51.7288 11.0502L51.7445 11.005C51.8078 10.8152 51.8854 10.6506 51.9822 10.4753C51.4379 10.7052 50.9357 10.9865 50.4775 11.3615L50.543 11.3944C50.9855 11.6185 51.4858 11.9228 51.1887 12.4687C51.0191 12.7804 50.6417 13.073 50.3023 13.16C49.615 13.3359 49.411 12.7358 48.932 12.4589C47.5957 12.6433 47.2824 13.0438 46.4351 13.9791L35.7996 25.3991C37.6262 27.5346 38.5094 30.2682 38.0167 33.06C37.1254 38.1094 32.4298 36.5155 30.8995 39.6964C30.3643 40.8084 30.3384 42.0958 30.1381 43.2944C29.3981 47.7212 27.6022 53.285 22.7469 54.6185C18.9162 55.6705 14.9503 54.6463 11.5718 52.7239ZM50.8408 3.13194C50.3485 3.56532 49.9036 4.05482 49.462 4.53873L46.3722 7.82724C45.9432 8.2585 45.5173 8.68874 45.2065 9.2162L47.2215 11.2145L47.7775 10.9922C49.2695 10.3074 50.5877 9.29436 51.9204 8.35035L52.5953 7.86731C52.6621 7.81734 52.7571 7.76394 52.7866 7.6837L53.5425 5.18582C52.9806 4.506 51.6181 3.46495 50.8408 3.13194ZM44.3794 10.7689L29.4546 25.4097C30.2151 25.7664 30.8536 26.2311 31.3309 26.9365L31.5703 27.3583L45.7979 12.1957L44.3794 10.7689ZM26.5997 19.9963C24.2109 20.0868 22.1221 21.556 21.3207 23.8175C21.1336 24.3452 21.051 24.914 20.9221 25.4583C20.5738 26.9279 19.9001 28.2181 18.7006 29.1653C16.9814 30.5226 14.7011 30.5234 12.652 30.9874C9.75022 31.6445 5.19507 33.3429 3.92823 36.0981C2.64256 38.8943 4.21282 42.4945 5.74589 44.8409C8.29369 48.7403 12.1846 51.9552 16.7836 53.0232C19.7473 53.7115 23.1213 53.5062 25.2801 51.0819L25.7594 50.4744C27.1938 48.3822 27.9271 45.9389 28.3795 43.4649C28.709 41.6642 28.6955 39.7811 29.7891 38.2198C30.7718 36.8169 32.1758 36.2606 33.6864 35.6222C35.605 34.8115 36.3363 34.1836 36.4182 32.0903L36.4272 31.3907C36.413 29.5731 35.7076 28.1034 34.6333 26.6669L33.1831 28.1474C32.8789 28.4522 32.5785 28.769 32.2405 29.0368L32.0831 29.1841C32.0637 29.5544 32.0526 29.932 31.9794 30.2962C31.2609 33.8736 26.5258 35.0522 24.078 32.3232C21.7139 29.6876 23.2164 25.6339 26.7381 24.9752C26.9796 24.93 27.2876 24.8553 27.5268 24.9446L27.6083 24.8449C27.9474 24.4109 28.4149 24.0431 28.8131 23.6606L31.0775 21.4691C29.7091 20.5305 28.2602 19.9785 26.5997 19.9963ZM27.1773 26.6448C23.3337 27.1677 24.2064 32.6488 27.9081 32.0942L27.944 32.0883C31.4964 31.5966 30.9392 26.3865 27.1773 26.6448Z" fill="black"/>
<path d="M20.4263 44.8026L20.3694 44.8124C19.1717 44.9952 18.2371 43.8148 17.4745 43.0694L13.4355 39.0803C12.4446 38.0867 11.2068 37.0858 12.3572 35.5322C12.7372 35.0187 13.2535 34.754 13.876 34.6595C14.74 34.573 15.2003 35.0308 15.7695 35.5817L20.9761 40.6535C21.4637 41.1174 22.0743 41.5653 22.2408 42.2536C22.547 43.5201 21.6083 44.5282 20.4263 44.8026ZM13.9847 36.3347C13.8109 36.4159 13.6819 36.5506 13.5726 36.7059C13.7806 37.0957 14.1393 37.3897 14.4521 37.6957L19.7437 42.864C19.887 42.9916 20.0757 43.1919 20.2766 43.1023C20.4413 42.9837 20.5553 42.8375 20.6616 42.6662L14.7842 36.9831C14.5775 36.7775 14.335 36.4699 14.084 36.3269L13.9847 36.3347Z" fill="black"/>
</svg>
