<svg width="47" height="47" viewBox="0 0 47 47" fill="none" xmlns="http://www.w3.org/2000/svg">
<path d="M23.5003 3.9165C12.7295 3.9165 3.91699 12.729 3.91699 23.4998C3.91699 34.2707 12.7295 43.0832 23.5003 43.0832C34.2712 43.0832 43.0837 34.2707 43.0837 23.4998C43.0837 12.729 34.2712 3.9165 23.5003 3.9165ZM31.7253 20.1707L22.3253 29.5707C21.542 30.354 20.367 30.354 19.5837 29.5707L15.2753 25.2623C14.492 24.479 14.492 23.304 15.2753 22.5207C16.0587 21.7373 17.2337 21.7373 18.017 22.5207L20.9545 25.4582L28.9837 17.429C29.767 16.6457 30.942 16.6457 31.7253 17.429C32.5087 18.2123 32.5087 19.3873 31.7253 20.1707Z" fill="#0AC655"/>
</svg>
