<svg width="32" height="40" viewBox="0 0 32 40" fill="none" xmlns="http://www.w3.org/2000/svg">
<path d="M15.9368 19.6403C21.2241 19.6403 25.5103 15.4115 25.5103 10.1951C25.5103 4.97873 21.2241 0.75 15.9368 0.75C10.6495 0.75 6.36328 4.97873 6.36328 10.1951C6.36328 15.4115 10.6495 19.6403 15.9368 19.6403Z" stroke="black" stroke-width="1.5" stroke-linecap="round" stroke-linejoin="round"/>
<path fill-rule="evenodd" clip-rule="evenodd" d="M0.750032 32.7775C0.747492 32.1135 0.898008 31.4576 1.19023 30.8595C2.10724 29.05 4.6932 28.0911 6.83899 27.6568C8.38654 27.331 9.95546 27.1133 11.5341 27.0054C14.4568 26.7521 17.3963 26.7521 20.319 27.0054C21.8975 27.1145 23.4663 27.3322 25.0141 27.6568C27.1599 28.0911 29.7458 28.9596 30.6628 30.8595C31.2505 32.0788 31.2505 33.4943 30.6628 34.7136C29.7458 36.6134 27.1599 37.482 25.0141 37.8981C23.4683 38.2374 21.8989 38.4612 20.319 38.5676C17.9402 38.7666 15.5502 38.8029 13.1663 38.6762C12.6161 38.6762 12.0843 38.6762 11.5341 38.5676C9.96012 38.4626 8.39664 38.2387 6.85733 37.8981C4.6932 37.482 2.12558 36.6134 1.19023 34.7136C0.899501 34.1085 0.749134 33.4471 0.750032 32.7775Z" stroke="black" stroke-width="1.5" stroke-linecap="round" stroke-linejoin="round"/>
</svg>
