<svg width="42" height="42" viewBox="0 0 42 42" fill="none" xmlns="http://www.w3.org/2000/svg">
<path d="M8.92656 39.375H33.0766C33.9449 39.375 34.6516 38.6684 34.6516 37.8V10.5C34.6516 10.4309 34.6379 10.3626 34.6114 10.2988C34.5849 10.235 34.5461 10.1771 34.4972 10.1283L27.1483 2.77935C27.0995 2.73039 27.0416 2.69155 26.9778 2.66506C26.914 2.63857 26.8456 2.62496 26.7766 2.625H8.92656C8.05821 2.625 7.35156 3.33165 7.35156 4.2V37.8C7.35156 38.6684 8.05821 39.375 8.92656 39.375ZM27.3016 4.41735L32.8592 9.975H27.8266C27.5368 9.975 27.3016 9.73927 27.3016 9.45V4.41735ZM8.40156 4.2C8.40156 3.91073 8.63676 3.675 8.92656 3.675H26.2516V9.45C26.2516 10.3183 26.9582 11.025 27.8266 11.025H33.6016V37.8C33.6016 38.0893 33.3664 38.325 33.0766 38.325H8.92656C8.63676 38.325 8.40156 38.0893 8.40156 37.8V4.2Z" fill="black"/>
<path d="M20.4766 14.6999H31.5016C31.6408 14.6999 31.7743 14.6446 31.8728 14.5461C31.9713 14.4477 32.0266 14.3141 32.0266 14.1749C32.0266 14.0357 31.9713 13.9021 31.8728 13.8037C31.7743 13.7052 31.6408 13.6499 31.5016 13.6499H20.4766C20.3373 13.6499 20.2038 13.7052 20.1053 13.8037C20.0069 13.9021 19.9516 14.0357 19.9516 14.1749C19.9516 14.3141 20.0069 14.4477 20.1053 14.5461C20.2038 14.6446 20.3373 14.6999 20.4766 14.6999ZM31.5016 18.3749H18.3766C18.2373 18.3749 18.1038 18.4302 18.0053 18.5287C17.9069 18.6271 17.8516 18.7607 17.8516 18.8999C17.8516 19.0391 17.9069 19.1727 18.0053 19.2711C18.1038 19.3696 18.2373 19.4249 18.3766 19.4249H31.5016C31.6408 19.4249 31.7743 19.3696 31.8728 19.2711C31.9713 19.1727 32.0266 19.0391 32.0266 18.8999C32.0266 18.7607 31.9713 18.6271 31.8728 18.5287C31.7743 18.4302 31.6408 18.3749 31.5016 18.3749ZM10.5016 24.1499H31.5016C31.6408 24.1499 31.7743 24.0946 31.8728 23.9961C31.9713 23.8977 32.0266 23.7641 32.0266 23.6249C32.0266 23.4857 31.9713 23.3521 31.8728 23.2537C31.7743 23.1552 31.6408 23.0999 31.5016 23.0999H10.5016C10.3623 23.0999 10.2288 23.1552 10.1303 23.2537C10.0319 23.3521 9.97656 23.4857 9.97656 23.6249C9.97656 23.7641 10.0319 23.8977 10.1303 23.9961C10.2288 24.0946 10.3623 24.1499 10.5016 24.1499ZM10.5016 28.8749H31.5016C31.6408 28.8749 31.7743 28.8196 31.8728 28.7211C31.9713 28.6227 32.0266 28.4891 32.0266 28.3499C32.0266 28.2107 31.9713 28.0771 31.8728 27.9787C31.7743 27.8802 31.6408 27.8249 31.5016 27.8249H10.5016C10.3623 27.8249 10.2288 27.8802 10.1303 27.9787C10.0319 28.0771 9.97656 28.2107 9.97656 28.3499C9.97656 28.4891 10.0319 28.6227 10.1303 28.7211C10.2288 28.8196 10.3623 28.8749 10.5016 28.8749ZM10.5016 33.5999H31.5016C31.6408 33.5999 31.7743 33.5446 31.8728 33.4461C31.9713 33.3477 32.0266 33.2141 32.0266 33.0749C32.0266 32.9357 31.9713 32.8021 31.8728 32.7037C31.7743 32.6052 31.6408 32.5499 31.5016 32.5499H10.5016C10.3623 32.5499 10.2288 32.6052 10.1303 32.7037C10.0319 32.8021 9.97656 32.9357 9.97656 33.0749C9.97656 33.2141 10.0319 33.3477 10.1303 33.4461C10.2288 33.5446 10.3623 33.5999 10.5016 33.5999Z" fill="black"/>
<path d="M14.3 5.388L14.34 5.872H10.876L10.836 5.388H14.3ZM13.556 10.472V10.5H12.78L11.328 8.692L10.884 8.652V8.16L11.812 8.336L11.788 8.496C11.9 8.58667 12 8.67467 12.088 8.76C12.1787 8.84533 12.264 8.932 12.344 9.02C12.4267 9.108 12.5093 9.20267 12.592 9.304L13.556 10.472ZM12.412 5.74H13.06C13.2147 5.876 13.332 6.04533 13.412 6.248C13.4947 6.45067 13.536 6.67867 13.536 6.932V7.024C13.536 7.55467 13.3933 7.95467 13.108 8.224C12.8253 8.49067 12.388 8.62933 11.796 8.64L11.408 8.644L10.884 8.16H11.6C12.0587 8.16 12.3907 8.06533 12.596 7.876C12.8013 7.684 12.904 7.392 12.904 7V6.912C12.904 6.66133 12.864 6.44 12.784 6.248C12.704 6.056 12.58 5.88667 12.412 5.74ZM14.3 6.744L14.34 7.228H10.876L10.836 6.744H14.3Z" fill="black"/>
</svg>
