<svg width="30" height="31" viewBox="0 0 30 31" fill="none" xmlns="http://www.w3.org/2000/svg">
<path d="M11.6128 27.4157C11.4848 27.4152 11.3581 27.3892 11.2402 27.3393C11.1222 27.2895 11.0153 27.2166 10.9257 27.1251L8.70958 24.9067C8.55256 24.7478 8.45522 24.5395 8.43406 24.3171C8.41289 24.0946 8.46921 23.8717 8.59345 23.686C8.74515 23.4462 8.81077 23.1618 8.77952 22.8797C8.74826 22.5976 8.62199 22.3345 8.42148 22.1338C8.22097 21.9331 7.95818 21.8067 7.67635 21.7754C7.39452 21.7441 7.11044 21.8098 6.87087 21.9617C6.68542 22.086 6.46271 22.1424 6.24049 22.1212C6.01826 22.1 5.81019 22.0026 5.65152 21.8454L3.387 19.627C3.29556 19.5373 3.22282 19.4303 3.17298 19.3122C3.12315 19.1941 3.09721 19.0673 3.09668 18.9392C3.09721 18.811 3.12315 18.6842 3.17298 18.5661C3.22282 18.4481 3.29556 18.3411 3.387 18.2513L17.7483 3.8751C17.8379 3.78356 17.9448 3.71074 18.0627 3.66085C18.1807 3.61097 18.3073 3.585 18.4354 3.58447C18.5634 3.585 18.6901 3.61097 18.808 3.66085C18.926 3.71074 19.0329 3.78356 19.1225 3.8751L21.3386 6.09354C21.4956 6.25237 21.593 6.46066 21.6141 6.68312C21.6353 6.90557 21.579 7.12851 21.4547 7.31416C21.279 7.5573 21.1965 7.85565 21.2223 8.15467C21.2482 8.45369 21.3807 8.7334 21.5956 8.94267C21.8105 9.15194 22.0935 9.27678 22.3928 9.29439C22.6921 9.31199 22.9878 9.22117 23.2257 9.03854C23.4112 8.91416 23.6339 8.85779 23.8561 8.87897C24.0783 8.90016 24.2864 8.9976 24.4451 9.15479L26.6612 11.3732C26.7526 11.4629 26.8254 11.5699 26.8752 11.688C26.9251 11.8061 26.951 11.9329 26.9515 12.061C26.951 12.1892 26.9251 12.316 26.8752 12.4341C26.8254 12.5521 26.7526 12.6591 26.6612 12.7488L12.2515 27.1251C12.0824 27.2985 11.8545 27.4022 11.6128 27.4157ZM10.558 24.0251L11.6128 25.0713L24.5612 12.061L23.516 11.0051C22.9552 11.1946 22.3526 11.2234 21.7763 11.0881C21.2 10.9529 20.673 10.6591 20.2547 10.2398C19.8385 9.81944 19.5474 9.29138 19.4141 8.71476C19.2808 8.13815 19.3105 7.53576 19.4999 6.9751L18.4354 5.92885L5.43861 18.9392L6.48378 19.9951C7.04475 19.8046 7.64779 19.775 8.22469 19.9096C8.80159 20.0443 9.32933 20.3379 9.74821 20.7573C10.1671 21.1766 10.4604 21.7049 10.5949 22.2824C10.7295 22.8599 10.6999 23.4635 10.5096 24.0251H10.558Z" fill="black"/>
</svg>
