<svg width="24" height="24" viewBox="0 0 24 24" fill="none" xmlns="http://www.w3.org/2000/svg">
<path d="M21.1213 9.8799L14.1213 2.8799C13.549 2.33689 12.7902 2.03418 12.0013 2.03418C11.2124 2.03418 10.4535 2.33689 9.88127 2.8799L2.88127 9.8799C2.31946 10.4424 2.00391 11.2049 2.00391 11.9999C2.00391 12.7949 2.31946 13.5574 2.88127 14.1199L9.88127 21.1199C10.4438 21.6817 11.2063 21.9973 12.0013 21.9973C12.7963 21.9973 13.5588 21.6817 14.1213 21.1199L21.1213 14.1199C21.6831 13.5574 21.9986 12.7949 21.9986 11.9999C21.9986 11.2049 21.6831 10.4424 21.1213 9.8799ZM19.7113 12.7099L12.7113 19.7099C12.6183 19.8036 12.5077 19.878 12.3858 19.9288C12.264 19.9796 12.1333 20.0057 12.0013 20.0057C11.8693 20.0057 11.7385 19.9796 11.6167 19.9288C11.4948 19.878 11.3842 19.8036 11.2913 19.7099L4.29127 12.7099C4.19754 12.6169 4.12314 12.5063 4.07238 12.3845C4.02161 12.2626 3.99547 12.1319 3.99547 11.9999C3.99547 11.8679 4.02161 11.7372 4.07238 11.6153C4.12314 11.4935 4.19754 11.3829 4.29127 11.2899L11.2913 4.2899C11.3842 4.19617 11.4948 4.12178 11.6167 4.07101C11.7385 4.02024 11.8693 3.9941 12.0013 3.9941C12.1333 3.9941 12.264 4.02024 12.3858 4.07101C12.5077 4.12178 12.6183 4.19617 12.7113 4.2899L19.7113 11.2899C19.805 11.3829 19.8794 11.4935 19.9302 11.6153C19.9809 11.7372 20.0071 11.8679 20.0071 11.9999C20.0071 12.1319 19.9809 12.2626 19.9302 12.3845C19.8794 12.5063 19.805 12.6169 19.7113 12.7099ZM14.2113 9.2899C14.023 9.1016 13.7676 8.99581 13.5013 8.99581C13.235 8.99581 12.9796 9.1016 12.7913 9.2899C12.603 9.4782 12.4972 9.7336 12.4972 9.9999C12.4972 10.2662 12.603 10.5216 12.7913 10.7099L13.0913 10.9999H9.50127C9.23605 10.9999 8.9817 11.1053 8.79416 11.2928C8.60662 11.4803 8.50127 11.7347 8.50127 11.9999V13.9999C8.50127 14.2651 8.60662 14.5195 8.79416 14.707C8.9817 14.8945 9.23605 14.9999 9.50127 14.9999C9.76648 14.9999 10.0208 14.8945 10.2084 14.707C10.3959 14.5195 10.5013 14.2651 10.5013 13.9999V12.9999H13.0913L12.7913 13.2899C12.6975 13.3829 12.6231 13.4935 12.5724 13.6153C12.5216 13.7372 12.4955 13.8679 12.4955 13.9999C12.4955 14.1319 12.5216 14.2626 12.5724 14.3845C12.6231 14.5063 12.6975 14.6169 12.7913 14.7099C12.8842 14.8036 12.9948 14.878 13.1167 14.9288C13.2385 14.9796 13.3693 15.0057 13.5013 15.0057C13.6333 15.0057 13.764 14.9796 13.8858 14.9288C14.0077 14.878 14.1183 14.8036 14.2113 14.7099L16.2113 12.7099C16.305 12.6169 16.3794 12.5063 16.4302 12.3845C16.4809 12.2626 16.5071 12.1319 16.5071 11.9999C16.5071 11.8679 16.4809 11.7372 16.4302 11.6153C16.3794 11.4935 16.305 11.3829 16.2113 11.2899L14.2113 9.2899Z" fill="black"/>
</svg>
