<svg width="14" height="14" viewBox="0 0 14 14" fill="none" xmlns="http://www.w3.org/2000/svg">
<path d="M10.4841 9.2972C10.3543 9.16673 10.2001 9.06321 10.0303 8.99257C9.86053 8.92194 9.67849 8.88558 9.49463 8.88558C9.31078 8.88558 9.12873 8.92194 8.95894 8.99257C8.78914 9.06321 8.63493 9.16673 8.50515 9.2972L7.82998 9.97361C7.06978 9.49026 6.36546 8.92389 5.72995 8.28491C5.09348 7.64702 4.52828 6.94157 4.04434 6.18103L4.71952 5.50462C4.84974 5.3746 4.95307 5.22011 5.02358 5.05C5.09409 4.87989 5.13038 4.69751 5.13038 4.51332C5.13038 4.32913 5.09409 4.14675 5.02358 3.97664C4.95307 3.80654 4.84974 3.65204 4.71952 3.52203L3.40176 2.20652C3.27382 2.07562 3.12091 1.97182 2.95213 1.9013C2.78334 1.83078 2.60213 1.79497 2.41926 1.79601C2.2351 1.79556 2.05266 1.83159 1.88244 1.90204C1.71223 1.9725 1.5576 2.07597 1.42746 2.20652L0.794188 2.83628C0.492348 3.16141 0.267073 3.55018 0.134922 3.974C0.00277088 4.39782 -0.0328963 4.84592 0.0305422 5.28537C0.179546 7.03471 1.32502 9.13859 3.08978 10.9113C4.85455 12.6839 6.97786 13.8268 8.724 13.9948C8.85429 14.0017 8.98485 14.0017 9.11514 13.9948C9.49101 14.0106 9.86626 13.9511 10.2189 13.8197C10.5715 13.6883 10.8944 13.4877 11.1686 13.2297L11.7972 12.5953C11.9275 12.4649 12.0308 12.31 12.1011 12.1395C12.1715 11.9689 12.2074 11.7862 12.207 11.6017C12.208 11.4185 12.1723 11.2369 12.1019 11.0678C12.0315 10.8987 11.9279 10.7455 11.7972 10.6174L10.4841 9.2972ZM11.1407 11.9375L10.5074 12.5673C10.2732 12.7628 9.99991 12.9056 9.70588 12.9861C9.41186 13.0666 9.104 13.0829 8.80316 13.0338C7.28984 12.9032 5.3621 11.8302 3.76961 10.2348C2.17713 8.63944 1.10617 6.72216 0.961818 5.20606C0.911604 4.90467 0.927229 4.59595 1.00762 4.30119C1.088 4.00643 1.23124 3.73264 1.42746 3.4987L2.08401 2.86427C2.12751 2.82104 2.17911 2.78683 2.23585 2.76362C2.29258 2.7404 2.35333 2.72864 2.41461 2.72899C2.47589 2.72864 2.53664 2.7404 2.59337 2.76362C2.6501 2.78683 2.7017 2.82104 2.74521 2.86427L4.06297 4.19844C4.14969 4.28584 4.19837 4.40408 4.19837 4.52732C4.19837 4.65056 4.14969 4.76879 4.06297 4.85619L3.13169 5.78918C3.05882 5.86182 3.01199 5.95659 2.99851 6.0587C2.98504 6.1608 3.00567 6.26451 3.05719 6.35363C3.61474 7.30455 4.2924 8.17945 5.0734 8.95666C5.84919 9.73909 6.72248 10.418 7.67166 10.9766C7.76062 11.0282 7.86414 11.0489 7.96605 11.0353C8.06797 11.0218 8.16257 10.9749 8.23508 10.9019L9.16636 9.96894C9.2536 9.88206 9.37162 9.83329 9.49463 9.83329C9.61765 9.83329 9.73566 9.88206 9.82291 9.96894L11.1407 11.2891C11.1838 11.3327 11.218 11.3844 11.2411 11.4412C11.2643 11.4981 11.2761 11.5589 11.2757 11.6203C11.2728 11.7395 11.2245 11.853 11.1407 11.9375ZM11.9509 2.04791C11.3038 1.39714 10.5345 0.881142 9.68733 0.52966C8.84021 0.178179 7.93201 -0.00182941 7.01511 1.40164e-05C6.89162 1.40164e-05 6.77318 0.0491621 6.68585 0.136646C6.59853 0.22413 6.54947 0.342784 6.54947 0.466506C6.54947 0.590227 6.59853 0.708881 6.68585 0.796365C6.77318 0.88385 6.89162 0.932998 7.01511 0.932998C7.81437 0.932969 8.60572 1.09151 9.3435 1.39948C10.0813 1.70745 10.7509 2.15874 11.3136 2.72732C11.8764 3.2959 12.3212 3.9705 12.6224 4.7122C12.9236 5.4539 13.0752 6.24801 13.0684 7.04871C13.0684 7.17243 13.1175 7.29108 13.2048 7.37856C13.2921 7.46605 13.4105 7.5152 13.534 7.5152C13.6575 7.5152 13.776 7.46605 13.8633 7.37856C13.9506 7.29108 13.9997 7.17243 13.9997 7.04871C14.0086 6.12036 13.8319 5.19961 13.48 4.34075C13.1282 3.48189 12.6082 2.70229 11.9509 2.04791Z" fill="black"/>
</svg>
