<svg width="13" height="13" viewBox="0 0 13 13" fill="none" xmlns="http://www.w3.org/2000/svg">
<path d="M11.8125 0.528501L0.848604 4.32368C0.745361 4.35942 0.656058 4.42688 0.593462 4.51643C0.530866 4.60597 0.498181 4.71301 0.500079 4.82225C0.501977 4.93149 0.538361 5.03733 0.60403 5.12464C0.669699 5.21196 0.76129 5.27628 0.865713 5.30841L5.82336 6.83384C5.90412 6.85869 5.97758 6.90292 6.03733 6.96267C6.09708 7.02242 6.14131 7.09588 6.16616 7.17664L7.69159 12.1343C7.72372 12.2387 7.78804 12.3303 7.87535 12.396C7.96267 12.4616 8.06851 12.498 8.17775 12.4999C8.28698 12.5018 8.39403 12.4691 8.48357 12.4065C8.57311 12.3439 8.64058 12.2546 8.67632 12.1514L12.4715 1.18754C12.5033 1.09566 12.5086 0.996691 12.4868 0.901941C12.465 0.807192 12.417 0.720487 12.3483 0.651739C12.2795 0.582991 12.1928 0.534976 12.0981 0.513183C12.0033 0.49139 11.9043 0.496698 11.8125 0.528501Z" stroke="black" stroke-linecap="round" stroke-linejoin="round"/>
</svg>
