<svg width="38" height="38" viewBox="0 0 38 38" fill="none" xmlns="http://www.w3.org/2000/svg">
<path d="M35.178 22.6611L36.2129 10.2469C36.2545 9.75057 36.084 9.25538 35.7468 8.88904C35.4095 8.52269 34.931 8.31251 34.4328 8.31251C33.9895 8.3113 33.5616 8.47547 33.2329 8.77292C32.9041 9.07037 32.6981 9.47973 32.6551 9.92098L31.6291 20.1875H26.1251C25.4702 20.1875 24.9376 20.7201 24.9376 21.375V22.5625C24.9376 23.1764 25.4078 23.6776 26.0063 23.7381L25.0516 28.9875C25.0376 29.0642 25.0389 29.1429 25.0554 29.2191C25.0718 29.2954 25.1032 29.3676 25.1475 29.4317C25.1919 29.4959 25.2485 29.5506 25.3141 29.5929C25.3796 29.6351 25.4528 29.6641 25.5295 29.678C25.6063 29.692 25.685 29.6907 25.7612 29.6742C25.8374 29.6577 25.9097 29.6264 25.9738 29.582C26.0379 29.5377 26.0927 29.4811 26.1349 29.4155C26.1772 29.35 26.2061 29.2768 26.2201 29.2L27.2116 23.75H32.9674L33.959 29.2C33.9907 29.3515 34.0803 29.4847 34.2087 29.5711C34.3371 29.6575 34.4942 29.6903 34.6465 29.6626C34.7988 29.6349 34.9342 29.5488 35.0239 29.4227C35.1137 29.2966 35.1506 29.1404 35.1269 28.9875L34.1716 23.7328C34.435 23.6923 34.6774 23.5648 34.8599 23.3706C35.0424 23.1763 35.154 22.9265 35.178 22.6611ZM26.1251 21.375H32.1659C32.3131 21.375 32.455 21.3203 32.5642 21.2216C32.6734 21.1229 32.7419 20.9871 32.7567 20.8406L33.8373 10.0391C33.8517 9.89141 33.9207 9.75437 34.0307 9.6547C34.1407 9.55504 34.2838 9.49989 34.4322 9.50001C34.6015 9.50001 34.7576 9.56829 34.8722 9.69298C34.9874 9.81766 35.0426 9.97976 35.0289 10.1484L33.9952 22.5625H26.1251V21.375ZM11.8751 20.1875H6.37101L5.34501 9.92098C5.30201 9.47973 5.096 9.07037 4.76726 8.77292C4.43852 8.47547 4.01066 8.3113 3.56733 8.31251C3.06917 8.31251 2.59061 8.5221 2.25336 8.88844C1.91611 9.25479 1.74629 9.75057 1.78726 10.2469L2.82217 22.6611C2.84625 22.9265 2.95848 23.1762 3.14099 23.3705C3.32349 23.5647 3.56575 23.6922 3.82917 23.7328L2.87323 28.9875C2.84504 29.1425 2.8796 29.3024 2.96929 29.4319C3.05898 29.5615 3.19647 29.6501 3.3515 29.6783C3.50653 29.7065 3.66641 29.6719 3.79596 29.5822C3.92552 29.4926 4.01414 29.3551 4.04233 29.2L5.0327 23.7494H10.7891L11.7801 29.2C11.8083 29.355 11.8969 29.4924 12.0264 29.582C12.1559 29.6717 12.3157 29.7062 12.4706 29.678C12.6256 29.6498 12.763 29.5612 12.8526 29.4317C12.9422 29.3022 12.9768 29.1424 12.9486 28.9875L11.9938 23.7381C12.2859 23.7093 12.5569 23.5731 12.7544 23.3559C12.9518 23.1387 13.0616 22.856 13.0626 22.5625V21.375C13.0626 20.7201 12.53 20.1875 11.8751 20.1875ZM2.97061 10.1484C2.96343 10.0657 2.97368 9.9825 3.00068 9.90405C3.02768 9.82561 3.07083 9.7537 3.12736 9.69298C3.18311 9.63182 3.25108 9.58304 3.32686 9.5498C3.40265 9.51656 3.48457 9.4996 3.56733 9.50001C3.87608 9.50001 4.13258 9.73157 4.16345 10.0391L5.24289 20.8406C5.25762 20.9872 5.3263 21.123 5.43558 21.2218C5.54487 21.3205 5.68697 21.3752 5.83426 21.375H11.8751V22.5625H4.00551L2.97061 10.1484Z" fill="black"/>
<path d="M27.3125 16.625C27.9674 16.625 28.5 16.0924 28.5 15.4375V14.25C28.5 13.5951 27.9674 13.0625 27.3125 13.0625H10.6875C10.0326 13.0625 9.5 13.5951 9.5 14.25V15.4375C9.5 16.0924 10.0326 16.625 10.6875 16.625H14.8438V17.8125C14.8438 18.4674 15.3763 19 16.0312 19H18.4062V26.125H17.2188C16.2367 26.125 15.4375 26.9242 15.4375 27.9062V29.0938C15.4375 29.2512 15.5001 29.4022 15.6114 29.5136C15.7228 29.6249 15.8738 29.6875 16.0312 29.6875H21.9688C22.1262 29.6875 22.2772 29.6249 22.3886 29.5136C22.4999 29.4022 22.5625 29.2512 22.5625 29.0938V27.9062C22.5625 26.9242 21.7633 26.125 20.7812 26.125H19.5938V19H21.9688C22.6237 19 23.1562 18.4674 23.1562 17.8125V16.625H27.3125ZM21.375 27.9062V28.5H16.625V27.9062C16.625 27.7488 16.6876 27.5978 16.7989 27.4864C16.9103 27.3751 17.0613 27.3125 17.2188 27.3125H20.7812C20.9387 27.3125 21.0897 27.3751 21.2011 27.4864C21.3124 27.5978 21.375 27.7488 21.375 27.9062ZM10.6875 14.25H27.3125L27.3137 15.4375H10.6875V14.25ZM21.9699 17.8125H16.0312V16.625H21.9688L21.9699 17.8125Z" fill="black"/>
</svg>
