<svg width="13" height="8" viewBox="0 0 13 8" fill="none" xmlns="http://www.w3.org/2000/svg">
<path d="M11.5267 0.253912L6.5 5.4839L1.47333 0.253912C1.30936 0.0891446 1.08976 -0.0020267 0.861812 3.41936e-05C0.633867 0.00209509 0.415819 0.0972232 0.254631 0.26493C0.0934438 0.432637 0.00201364 0.659504 3.28643e-05 0.896669C-0.00194792 1.13383 0.0856793 1.36232 0.244041 1.53291L5.88275 7.39969C5.96361 7.48417 6.05984 7.55104 6.16582 7.59639C6.2718 7.64174 6.38541 7.66466 6.5 7.66381C6.61456 7.66441 6.72809 7.64138 6.83404 7.59604C6.93999 7.55071 7.03624 7.48397 7.11725 7.39969L12.756 1.53291C12.9143 1.36232 13.0019 1.13383 13 0.896669C12.998 0.659504 12.9066 0.432637 12.7454 0.26493C12.5842 0.0972232 12.3661 0.00209509 12.1382 3.41936e-05C11.9102 -0.0020267 11.6906 0.0891446 11.5267 0.253912Z" fill="#686868"/>
</svg>
