<svg width="23" height="23" viewBox="0 0 23 23" fill="none" xmlns="http://www.w3.org/2000/svg">
<path d="M19.8471 18.4863L16.5888 15.2375C17.64 13.8982 18.2105 12.2443 18.2083 10.5417C18.2083 9.02534 17.7587 7.54307 16.9163 6.28229C16.0738 5.02152 14.8765 4.03886 13.4756 3.45859C12.0747 2.87832 10.5332 2.72649 9.04598 3.02231C7.55879 3.31813 6.19272 4.04831 5.12052 5.12051C4.04832 6.19272 3.31814 7.55879 3.02232 9.04597C2.7265 10.5332 2.87832 12.0747 3.45859 13.4756C4.03887 14.8765 5.02152 16.0738 6.2823 16.9163C7.54308 17.7587 9.02535 18.2083 10.5417 18.2083C12.2443 18.2105 13.8982 17.64 15.2375 16.5888L18.4863 19.8471C18.5753 19.9369 18.6813 20.0082 18.7981 20.0569C18.9149 20.1055 19.0402 20.1306 19.1667 20.1306C19.2932 20.1306 19.4184 20.1055 19.5352 20.0569C19.652 20.0082 19.758 19.9369 19.8471 19.8471C19.9369 19.758 20.0082 19.652 20.0569 19.5352C20.1055 19.4184 20.1306 19.2932 20.1306 19.1667C20.1306 19.0402 20.1055 18.9149 20.0569 18.7981C20.0082 18.6813 19.9369 18.5753 19.8471 18.4863ZM4.79167 10.5417C4.79167 9.40442 5.1289 8.29272 5.76072 7.34714C6.39254 6.40156 7.29057 5.66456 8.34124 5.22936C9.39192 4.79416 10.548 4.68029 11.6634 4.90215C12.7788 5.12402 13.8034 5.67165 14.6075 6.4758C15.4117 7.27995 15.9593 8.30451 16.1812 9.4199C16.4031 10.5353 16.2892 11.6914 15.854 12.7421C15.4188 13.7928 14.6818 14.6908 13.7362 15.3226C12.7906 15.9544 11.6789 16.2917 10.5417 16.2917C9.01668 16.2917 7.55414 15.6859 6.47581 14.6075C5.39747 13.5292 4.79167 12.0667 4.79167 10.5417Z" fill="#5331EA"/>
</svg>
