<svg width="62" height="66" viewBox="0 0 62 66" fill="none" xmlns="http://www.w3.org/2000/svg">
<path d="M17.45 65.9004C11.65 65.9004 7.28336 64.2004 4.35002 60.8004C1.45002 57.4004 2.46912e-05 52.4504 2.46912e-05 45.9504V20.0004C2.46912e-05 13.4671 1.45002 8.50039 4.35002 5.10039C7.25003 1.70039 11.6167 0.000385761 17.45 0.000385761C23.25 0.000385761 27.6 1.70039 30.5 5.10039C33.4334 8.50039 34.9 13.4671 34.9 20.0004V45.9504C34.9 52.4504 33.4334 57.4004 30.5 60.8004C27.6 64.2004 23.25 65.9004 17.45 65.9004ZM17.45 60.8004C21.35 60.8004 24.2334 59.5671 26.1 57.1004C27.9667 54.6337 28.9 51.0337 28.9 46.3004V19.6504C28.9 14.8837 27.9667 11.2671 26.1 8.80039C24.2334 6.30039 21.35 5.05039 17.45 5.05039C13.55 5.05039 10.6667 6.30039 8.80003 8.80039C6.93336 11.2671 6.00003 14.8837 6.00003 19.6504V46.3004C6.00003 51.0337 6.93336 54.6337 8.80003 57.1004C10.6667 59.5671 13.55 60.8004 17.45 60.8004ZM55.3172 64.9004V7.35039H54.7172L42.0172 16.9504L42.1172 10.7004L54.9172 1.00038H61.2172V64.9004H55.3172Z" fill="#E7C200"/>
</svg>
