<svg width="73" height="66" viewBox="0 0 73 66" fill="none" xmlns="http://www.w3.org/2000/svg">
<path d="M17.45 65.9004C11.65 65.9004 7.28336 64.2004 4.35002 60.8004C1.45002 57.4004 2.46912e-05 52.4504 2.46912e-05 45.9504V20.0004C2.46912e-05 13.4671 1.45002 8.50039 4.35002 5.10039C7.25003 1.70039 11.6167 0.000385761 17.45 0.000385761C23.25 0.000385761 27.6 1.70039 30.5 5.10039C33.4334 8.50039 34.9 13.4671 34.9 20.0004V45.9504C34.9 52.4504 33.4334 57.4004 30.5 60.8004C27.6 64.2004 23.25 65.9004 17.45 65.9004ZM17.45 60.8004C21.35 60.8004 24.2334 59.5671 26.1 57.1004C27.9667 54.6337 28.9 51.0337 28.9 46.3004V19.6504C28.9 14.8837 27.9667 11.2671 26.1 8.80039C24.2334 6.30039 21.35 5.05039 17.45 5.05039C13.55 5.05039 10.6667 6.30039 8.80003 8.80039C6.93336 11.2671 6.00003 14.8837 6.00003 19.6504V46.3004C6.00003 51.0337 6.93336 54.6337 8.80003 57.1004C10.6667 59.5671 13.55 60.8004 17.45 60.8004ZM42.1383 64.9004V59.0004L54.6383 41.6004C57.0383 38.2004 59.055 35.2171 60.6883 32.6504C62.3216 30.0837 63.555 27.6671 64.3883 25.4004C65.255 23.1004 65.6883 20.7171 65.6883 18.2504V16.8004C65.6883 14.3671 65.305 12.3004 64.5383 10.6004C63.805 8.90039 62.655 7.61705 61.0883 6.75039C59.555 5.85039 57.5716 5.40039 55.1383 5.40039C52.5716 5.40039 50.2383 5.83372 48.1383 6.70039C46.0383 7.56706 44.1216 8.61706 42.3883 9.85039L42.9383 4.25039C43.8716 3.58372 44.9883 2.93372 46.2883 2.30039C47.5883 1.63372 49.0716 1.10039 50.7383 0.700389C52.405 0.30039 54.2383 0.10039 56.2383 0.10039C61.4716 0.10039 65.355 1.50039 67.8883 4.30039C70.4216 7.10039 71.6883 11.0671 71.6883 16.2004V17.7004C71.6883 20.7671 71.205 23.6337 70.2383 26.3004C69.2716 28.9671 67.8716 31.7171 66.0383 34.5504C64.2383 37.3837 62.055 40.6171 59.4883 44.2504L48.7383 59.3504V61.0004L46.2883 59.7004H72.4383V64.9004H42.1383Z" fill="#E7C200"/>
</svg>
