<svg width="73" height="66" viewBox="0 0 73 66" fill="none" xmlns="http://www.w3.org/2000/svg">
<path d="M17.45 65.8999C11.65 65.8999 7.28336 64.1999 4.35002 60.7999C1.45002 57.3999 2.46912e-05 52.4499 2.46912e-05 45.9499V19.9999C2.46912e-05 13.4666 1.45002 8.4999 4.35002 5.0999C7.25003 1.6999 11.6167 -0.00010252 17.45 -0.00010252C23.25 -0.00010252 27.6 1.6999 30.5 5.0999C33.4334 8.4999 34.9 13.4666 34.9 19.9999V45.9499C34.9 52.4499 33.4334 57.3999 30.5 60.7999C27.6 64.1999 23.25 65.8999 17.45 65.8999ZM17.45 60.7999C21.35 60.7999 24.2334 59.5666 26.1 57.0999C27.9667 54.6332 28.9 51.0332 28.9 46.2999V19.6499C28.9 14.8832 27.9667 11.2666 26.1 8.7999C24.2334 6.2999 21.35 5.0499 17.45 5.0499C13.55 5.0499 10.6667 6.2999 8.80003 8.7999C6.93336 11.2666 6.00003 14.8832 6.00003 19.6499V46.2999C6.00003 51.0332 6.93336 54.6332 8.80003 57.0999C10.6667 59.5666 13.55 60.7999 17.45 60.7999ZM42.1383 64.8999V58.9999L54.6383 41.5999C57.0383 38.1999 59.055 35.2166 60.6883 32.6499C62.3216 30.0832 63.555 27.6666 64.3883 25.3999C65.255 23.0999 65.6883 20.7166 65.6883 18.2499V16.7999C65.6883 14.3666 65.305 12.2999 64.5383 10.5999C63.805 8.8999 62.655 7.61656 61.0883 6.7499C59.555 5.8499 57.5716 5.3999 55.1383 5.3999C52.5716 5.3999 50.2383 5.83323 48.1383 6.6999C46.0383 7.56657 44.1216 8.61657 42.3883 9.8499L42.9383 4.2499C43.8716 3.58323 44.9883 2.93323 46.2883 2.2999C47.5883 1.63323 49.0716 1.0999 50.7383 0.6999C52.405 0.299902 54.2383 0.0999022 56.2383 0.0999022C61.4716 0.0999022 65.355 1.4999 67.8883 4.2999C70.4216 7.0999 71.6883 11.0666 71.6883 16.1999V17.6999C71.6883 20.7666 71.205 23.6332 70.2383 26.2999C69.2716 28.9666 67.8716 31.7166 66.0383 34.5499C64.2383 37.3832 62.055 40.6166 59.4883 44.2499L48.7383 59.3499V60.9999L46.2883 59.6999H72.4383V64.8999H42.1383Z" fill="#5331EA"/>
</svg>
