<svg width="74" height="66" viewBox="0 0 74 66" fill="none" xmlns="http://www.w3.org/2000/svg">
<path d="M17.45 65.9004C11.65 65.9004 7.28336 64.2004 4.35002 60.8004C1.45002 57.4004 2.46912e-05 52.4504 2.46912e-05 45.9504V20.0004C2.46912e-05 13.4671 1.45002 8.50039 4.35002 5.10039C7.25003 1.70039 11.6167 0.000385761 17.45 0.000385761C23.25 0.000385761 27.6 1.70039 30.5 5.10039C33.4334 8.50039 34.9 13.4671 34.9 20.0004V45.9504C34.9 52.4504 33.4334 57.4004 30.5 60.8004C27.6 64.2004 23.25 65.9004 17.45 65.9004ZM17.45 60.8004C21.35 60.8004 24.2334 59.5671 26.1 57.1004C27.9667 54.6337 28.9 51.0337 28.9 46.3004V19.6504C28.9 14.8837 27.9667 11.2671 26.1 8.80039C24.2334 6.30039 21.35 5.05039 17.45 5.05039C13.55 5.05039 10.6667 6.30039 8.80003 8.80039C6.93336 11.2671 6.00003 14.8837 6.00003 19.6504V46.3004C6.00003 51.0337 6.93336 54.6337 8.80003 57.1004C10.6667 59.5671 13.55 60.8004 17.45 60.8004ZM56.4836 65.8504C54.4503 65.8504 52.567 65.6504 50.8336 65.2504C49.1003 64.8837 47.5503 64.4337 46.1836 63.9004C44.8503 63.3671 43.7336 62.8171 42.8336 62.2504L42.2836 56.4004C44.0503 57.5337 46.067 58.5004 48.3336 59.3004C50.6336 60.1004 53.1336 60.5004 55.8336 60.5004C58.6003 60.5004 60.8336 60.0504 62.5336 59.1504C64.267 58.2504 65.517 56.9504 66.2836 55.2504C67.0836 53.5504 67.4836 51.4837 67.4836 49.0504V45.5504C67.4836 43.0504 67.0836 41.0004 66.2836 39.4004C65.517 37.8004 64.267 36.6004 62.5336 35.8004C60.8003 35.0004 58.517 34.5837 55.6836 34.5504L48.5336 34.4004V29.5504L55.8336 29.4004C58.6336 29.3337 60.8503 28.8837 62.4836 28.0504C64.1503 27.1837 65.3336 25.9671 66.0336 24.4004C66.767 22.8004 67.1336 20.9171 67.1336 18.7504V16.2504C67.1336 12.6837 66.3003 9.96706 64.6336 8.10039C63.0003 6.23372 60.2003 5.30039 56.2336 5.30039C53.5003 5.30039 51.0003 5.71706 48.7336 6.55039C46.467 7.35039 44.4503 8.30039 42.6836 9.40039L43.2336 4.00039C44.7003 2.96705 46.617 2.05039 48.9836 1.25039C51.3503 0.450389 54.117 0.0503881 57.2836 0.0503881C62.817 0.0503881 66.8336 1.40039 69.3336 4.10039C71.8336 6.76705 73.0836 10.5004 73.0836 15.3004V18.2004C73.0836 20.6337 72.717 22.8004 71.9836 24.7004C71.2503 26.6004 70.067 28.1504 68.4336 29.3504C66.8336 30.5171 64.7003 31.2337 62.0336 31.5004L61.9336 32.2004L61.8336 31.5504C66.067 32.0504 69.067 33.5004 70.8336 35.9004C72.6336 38.2671 73.5336 41.4337 73.5336 45.4004V49.5004C73.5336 54.5671 72.167 58.5671 69.4336 61.5004C66.7003 64.4004 62.3836 65.8504 56.4836 65.8504Z" fill="#E7C200"/>
</svg>
