<svg width="24" height="26" viewBox="0 0 24 26" fill="none" xmlns="http://www.w3.org/2000/svg">
<path d="M20.8663 10.8885C20.7064 10.0734 20.2846 9.49903 19.6153 8.74303L13.3628 2.49047C12.1407 1.25543 11.6501 1 9.94638 1H4.62529C2.61688 1 1 2.61688 1 4.62528V20.9497C1 22.9581 2.61688 24.575 4.62529 24.575H14.5901" stroke="#686868" stroke-width="2" stroke-linecap="round" stroke-linejoin="round"/>
<path d="M10.9659 1.91357V7.35504C10.9659 9.36345 12.5828 10.9803 14.5912 10.9803H20.8738" stroke="#686868" stroke-width="2" stroke-linecap="round" stroke-linejoin="round"/>
<path d="M16.3933 18.8079H22.4827H16.3933ZM19.438 15.7632V21.8526V15.7632Z" fill="#686868"/>
<path d="M16.3933 18.8079H22.4827M19.438 15.7632V21.8526" stroke="#686868" stroke-width="2" stroke-linecap="round" stroke-linejoin="round"/>
<path d="M5.20789 18.3953H10.8155H5.20789ZM5.20789 13.709H8.57246H5.20789Z" fill="#686868"/>
<path d="M5.20789 18.3953H10.8155M5.20789 13.709H8.57246" stroke="#686868" stroke-width="2" stroke-linecap="round" stroke-linejoin="round"/>
</svg>
