<svg width="15" height="18" viewBox="0 0 15 18" fill="none" xmlns="http://www.w3.org/2000/svg">
<path d="M0 3.10938V8.10938C0 13.2969 2.75 14.8594 6.5 16.9844L7.1875 17.3594C7.3125 17.4844 7.375 17.4844 7.5 17.4844C7.625 17.4844 7.6875 17.4844 7.8125 17.4219L8.5 17.0469C12.25 14.8594 15 13.2969 15 8.10938V3.10938C15 2.85938 14.8125 2.60938 14.5625 2.54688L7.6875 0.046875C7.5625 -0.015625 7.375 -0.015625 7.25 0.046875L0.375 2.54688C0.1875 2.60938 0 2.85938 0 3.10938ZM3.75 8.73438C3.75 7.92188 4.25 7.23438 5 6.98438V5.60938C5 4.23438 6.125 3.10938 7.5 3.10938C8.875 3.10938 10 4.23438 10 5.60938V6.98438C10.75 7.23438 11.25 7.92188 11.25 8.73438V10.6094C11.25 12.6719 9.5625 14.3594 7.5 14.3594C5.4375 14.3594 3.75 12.6719 3.75 10.6094V8.73438Z" fill="black"/>
</svg>
