<svg width="28" height="28" viewBox="0 0 28 28" fill="none" xmlns="http://www.w3.org/2000/svg">
<path d="M24.5 6.5394H2.625V5.6644L21.875 4.1244V5.6644H24.5V3.0394C24.5 1.1144 22.9408 -0.236595 21.0368 0.0346548L3.465 2.54415C1.55925 2.81715 0 4.6144 0 6.5394V24.0394C0 24.9677 0.368749 25.8579 1.02513 26.5143C1.6815 27.1707 2.57174 27.5394 3.5 27.5394H24.5C25.4283 27.5394 26.3185 27.1707 26.9749 26.5143C27.6313 25.8579 28 24.9677 28 24.0394V10.0394C28 9.11115 27.6313 8.22091 26.9749 7.56453C26.3185 6.90815 25.4283 6.5394 24.5 6.5394ZM21.875 18.7999C21.5302 18.7998 21.1887 18.7318 20.8702 18.5997C20.5516 18.4676 20.2622 18.2741 20.0185 18.0302C19.7747 17.7863 19.5814 17.4967 19.4495 17.1781C19.3177 16.8595 19.2499 16.518 19.25 16.1732C19.2501 15.8283 19.3181 15.4869 19.4502 15.1683C19.5823 14.8498 19.7758 14.5604 20.0197 14.3166C20.2636 14.0729 20.5532 13.8796 20.8718 13.7477C21.1904 13.6158 21.5319 13.548 21.8768 13.5482C22.5732 13.5484 23.241 13.8253 23.7333 14.3179C24.2256 14.8105 24.502 15.4785 24.5017 16.1749C24.5015 16.8713 24.2246 17.5391 23.732 18.0314C23.2394 18.5237 22.5714 18.8001 21.875 18.7999Z" fill="#2F834E"/>
</svg>
