<svg width="121" height="54" viewBox="0 0 121 54" fill="none" xmlns="http://www.w3.org/2000/svg">
<path d="M41.5938 7.83871C46.9993 7.83871 51.5218 5.22598 52.6608 1.72835C52.9533 0.830556 53.0993 0.381659 53.4447 0.19083C53.7899 8.27139e-07 54.346 0 55.4583 0H81.9271C99.7174 0 108.613 -1.4385e-06 114.377 3.60999C114.866 3.91631 115.333 4.239 115.776 4.57702C121 8.55996 121 14.7066 121 27C121 39.2934 121 45.44 115.776 49.423C115.333 49.761 114.866 50.0837 114.377 50.39C108.613 54 99.7174 54 81.9271 54H55.4583C54.346 54 53.7899 54 53.4447 53.8092C53.0993 53.6183 52.9533 53.1694 52.6608 52.2717C51.5218 48.774 46.9993 46.1613 41.5938 46.1613C36.2069 46.1613 31.6968 48.756 30.5385 52.2355C30.2369 53.1416 30.0861 53.5947 29.7325 53.7849C29.3788 53.9751 28.8204 53.9666 27.7037 53.9498C17.1864 53.7913 11.0018 53.1321 6.62362 50.39C6.13445 50.0837 5.66746 49.761 5.22418 49.423C0 45.44 0 39.2934 0 27C0 14.7066 0 8.55996 5.22418 4.57702C5.66746 4.239 6.13445 3.91631 6.62362 3.60999C11.0018 0.867918 17.1864 0.208682 27.7037 0.0501661C28.8204 0.0333564 29.3788 0.0249111 29.7325 0.21513C30.0861 0.40535 30.2369 0.858427 30.5385 1.7645C31.6968 5.24401 36.2069 7.83871 41.5938 7.83871Z" fill="url(#paint0_linear_713_1875)"/>
<defs>
<linearGradient id="paint0_linear_713_1875" x1="-157.667" y1="-145.106" x2="123.919" y2="32.6477" gradientUnits="userSpaceOnUse">
<stop stop-color="#866BFF"/>
<stop offset="1" stop-color="#BDB1F3"/>
</linearGradient>
</defs>
</svg>
