<svg width="19" height="19" viewBox="0 0 19 19" fill="none" xmlns="http://www.w3.org/2000/svg">
<path d="M11.1967 3.26578C11.1967 2.52342 10.3098 2.13935 9.76831 2.64692L6.41821 5.78871C6.19806 5.99499 5.90765 6.10975 5.60596 6.10967H3.56278C2.97788 6.10967 2.41694 6.34202 2.00336 6.75561C1.58977 7.16919 1.35742 7.73013 1.35742 8.31503V10.6846C1.35742 11.2695 1.58977 11.8304 2.00336 12.244C2.41694 12.6576 2.97788 12.89 3.56278 12.89H5.60664C5.90792 12.89 6.19835 13.0053 6.41821 13.2109L9.76831 16.35C10.3105 16.8576 11.1967 16.4735 11.1967 15.7311V3.26578ZM7.11442 6.53107L10.1789 3.65664V15.3389L7.11442 12.4672C6.7057 12.0844 6.16665 11.8714 5.60664 11.8714H3.56278C3.24783 11.8714 2.94579 11.7463 2.72309 11.5236C2.50039 11.3009 2.37528 10.9989 2.37528 10.6839V8.31435C2.37528 7.65885 2.90728 7.12685 3.56278 7.12685H5.60596C6.16639 7.1267 6.70574 6.91319 7.11442 6.52971M15.4052 3.56164C15.3149 3.46492 15.1904 3.40719 15.0583 3.40068C14.9261 3.39417 14.7966 3.43941 14.6972 3.52679C14.5978 3.61416 14.5364 3.73682 14.5259 3.86874C14.5154 4.00066 14.5568 4.13146 14.6411 4.23342C15.9232 5.68755 16.629 7.56052 16.6253 9.49914C16.6253 11.5165 15.8768 13.3582 14.6411 14.7628C14.5946 14.8126 14.5586 14.8712 14.5352 14.9352C14.5118 14.9991 14.5014 15.0672 14.5048 15.1352C14.5081 15.2032 14.5251 15.2699 14.5547 15.3313C14.5843 15.3926 14.6259 15.4474 14.677 15.4924C14.7282 15.5374 14.7879 15.5716 14.8525 15.5931C14.9171 15.6146 14.9854 15.6229 15.0533 15.6175C15.1213 15.6121 15.1874 15.5932 15.2478 15.5617C15.3083 15.5303 15.3618 15.4871 15.4052 15.4346C16.8502 13.7953 17.6462 11.6844 17.6431 9.49914C17.6463 7.31367 16.8504 5.20243 15.4052 3.56299M13.8106 5.63264C13.7709 5.578 13.7207 5.5318 13.663 5.49674C13.6053 5.46168 13.5412 5.43845 13.4744 5.42842C13.4076 5.41839 13.3395 5.42175 13.274 5.4383C13.2085 5.45485 13.147 5.48427 13.093 5.52484C13.0391 5.56541 12.9937 5.61632 12.9596 5.6746C12.9254 5.73288 12.9033 5.79737 12.8943 5.86431C12.8854 5.93124 12.8899 5.99929 12.9075 6.06448C12.9251 6.12968 12.9555 6.19071 12.997 6.24403C13.7023 7.18247 14.0827 8.32517 14.0806 9.49914C14.0806 10.7206 13.6776 11.847 12.997 12.7542C12.9569 12.8077 12.9277 12.8686 12.9111 12.9333C12.8945 12.998 12.8908 13.0654 12.9003 13.1316C12.9097 13.1977 12.9321 13.2614 12.9662 13.3189C13.0002 13.3764 13.0453 13.4266 13.0987 13.4667C13.1522 13.5068 13.2131 13.536 13.2778 13.5526C13.3425 13.5692 13.4099 13.5729 13.4761 13.5634C13.5422 13.554 13.6059 13.5316 13.6634 13.4975C13.7209 13.4635 13.7711 13.4184 13.8112 13.365C14.6488 12.2503 15.1006 10.8933 15.0985 9.49914C15.1006 8.10493 14.6488 6.74794 13.8112 5.63332" fill="black"/>
</svg>
