<svg width="62" height="66" viewBox="0 0 62 66" fill="none" xmlns="http://www.w3.org/2000/svg">
<path d="M17.45 65.8999C11.65 65.8999 7.28336 64.1999 4.35002 60.7999C1.45002 57.3999 2.46912e-05 52.4499 2.46912e-05 45.9499V19.9999C2.46912e-05 13.4666 1.45002 8.4999 4.35002 5.0999C7.25003 1.6999 11.6167 -0.00010252 17.45 -0.00010252C23.25 -0.00010252 27.6 1.6999 30.5 5.0999C33.4334 8.4999 34.9 13.4666 34.9 19.9999V45.9499C34.9 52.4499 33.4334 57.3999 30.5 60.7999C27.6 64.1999 23.25 65.8999 17.45 65.8999ZM17.45 60.7999C21.35 60.7999 24.2334 59.5666 26.1 57.0999C27.9667 54.6332 28.9 51.0332 28.9 46.2999V19.6499C28.9 14.8832 27.9667 11.2666 26.1 8.7999C24.2334 6.2999 21.35 5.0499 17.45 5.0499C13.55 5.0499 10.6667 6.2999 8.80003 8.7999C6.93336 11.2666 6.00003 14.8832 6.00003 19.6499V46.2999C6.00003 51.0332 6.93336 54.6332 8.80003 57.0999C10.6667 59.5666 13.55 60.7999 17.45 60.7999ZM55.3172 64.8999V7.3499H54.7172L42.0172 16.9499L42.1172 10.6999L54.9172 0.999897H61.2172V64.8999H55.3172Z" fill="#5331EA"/>
</svg>
