<svg width="74" height="66" viewBox="0 0 74 66" fill="none" xmlns="http://www.w3.org/2000/svg">
<path d="M17.45 65.8999C11.65 65.8999 7.28336 64.1999 4.35002 60.7999C1.45002 57.3999 2.46912e-05 52.4499 2.46912e-05 45.9499V19.9999C2.46912e-05 13.4666 1.45002 8.4999 4.35002 5.0999C7.25003 1.6999 11.6167 -0.00010252 17.45 -0.00010252C23.25 -0.00010252 27.6 1.6999 30.5 5.0999C33.4334 8.4999 34.9 13.4666 34.9 19.9999V45.9499C34.9 52.4499 33.4334 57.3999 30.5 60.7999C27.6 64.1999 23.25 65.8999 17.45 65.8999ZM17.45 60.7999C21.35 60.7999 24.2334 59.5666 26.1 57.0999C27.9667 54.6332 28.9 51.0332 28.9 46.2999V19.6499C28.9 14.8832 27.9667 11.2666 26.1 8.7999C24.2334 6.2999 21.35 5.0499 17.45 5.0499C13.55 5.0499 10.6667 6.2999 8.80003 8.7999C6.93336 11.2666 6.00003 14.8832 6.00003 19.6499V46.2999C6.00003 51.0332 6.93336 54.6332 8.80003 57.0999C10.6667 59.5666 13.55 60.7999 17.45 60.7999ZM56.4836 65.8499C54.4503 65.8499 52.567 65.6499 50.8336 65.2499C49.1003 64.8832 47.5503 64.4332 46.1836 63.8999C44.8503 63.3666 43.7336 62.8166 42.8336 62.2499L42.2836 56.3999C44.0503 57.5332 46.067 58.4999 48.3336 59.2999C50.6336 60.0999 53.1336 60.4999 55.8336 60.4999C58.6003 60.4999 60.8336 60.0499 62.5336 59.1499C64.267 58.2499 65.517 56.9499 66.2836 55.2499C67.0836 53.5499 67.4836 51.4832 67.4836 49.0499V45.5499C67.4836 43.0499 67.0836 40.9999 66.2836 39.3999C65.517 37.7999 64.267 36.5999 62.5336 35.7999C60.8003 34.9999 58.517 34.5832 55.6836 34.5499L48.5336 34.3999V29.5499L55.8336 29.3999C58.6336 29.3332 60.8503 28.8832 62.4836 28.0499C64.1503 27.1832 65.3336 25.9666 66.0336 24.3999C66.767 22.7999 67.1336 20.9166 67.1336 18.7499V16.2499C67.1336 12.6832 66.3003 9.96657 64.6336 8.0999C63.0003 6.23323 60.2003 5.2999 56.2336 5.2999C53.5003 5.2999 51.0003 5.71657 48.7336 6.5499C46.467 7.3499 44.4503 8.2999 42.6836 9.3999L43.2336 3.9999C44.7003 2.96657 46.617 2.0499 48.9836 1.2499C51.3503 0.449901 54.117 0.0498998 57.2836 0.0498998C62.817 0.0498998 66.8336 1.3999 69.3336 4.0999C71.8336 6.76657 73.0836 10.4999 73.0836 15.2999V18.1999C73.0836 20.6332 72.717 22.7999 71.9836 24.6999C71.2503 26.5999 70.067 28.1499 68.4336 29.3499C66.8336 30.5166 64.7003 31.2332 62.0336 31.4999L61.9336 32.1999L61.8336 31.5499C66.067 32.0499 69.067 33.4999 70.8336 35.8999C72.6336 38.2666 73.5336 41.4332 73.5336 45.3999V49.4999C73.5336 54.5666 72.167 58.5666 69.4336 61.4999C66.7003 64.3999 62.3836 65.8499 56.4836 65.8499Z" fill="#5331EA"/>
</svg>
