<svg width="288" height="120" viewBox="0 0 288 120" fill="none" xmlns="http://www.w3.org/2000/svg">
<path d="M99 17.4194C111.866 17.4194 122.63 11.6133 125.341 3.84078C126.037 1.84568 126.385 0.848131 127.207 0.424066C128.029 1.83809e-06 129.352 0 132 0H195C237.344 0 258.516 -3.19667e-06 272.235 8.02219C273.399 8.7029 274.512 9.42 275.565 10.1712C288 19.0221 288 32.6814 288 60C288 87.3186 288 100.978 275.565 109.829C274.512 110.58 273.399 111.297 272.235 111.978C258.516 120 237.344 120 195 120H132C129.352 120 128.029 120 127.207 119.576C126.385 119.152 126.037 118.154 125.341 116.159C122.63 108.387 111.866 102.581 99 102.581C86.1783 102.581 75.4437 108.347 72.6867 116.079C71.9688 118.092 71.61 119.099 70.7682 119.522C69.9264 119.945 68.5974 119.926 65.9394 119.889C40.9065 119.536 26.1861 118.071 15.7653 111.978C14.601 111.297 13.4895 110.58 12.4344 109.829C0 100.978 0 87.3186 0 60C0 32.6814 0 19.0221 12.4344 10.1712C13.4895 9.42 14.601 8.7029 15.7653 8.02219C26.1861 1.92871 40.9065 0.463738 65.9394 0.11148C68.5974 0.0741254 69.9264 0.055358 70.7682 0.478068C71.61 0.900777 71.9688 1.90762 72.6867 3.9211C75.4437 11.6534 86.1783 17.4194 99 17.4194Z" fill="url(#paint0_linear_1235_2357)"/>
<line x1="100.199" y1="83.9692" x2="100.199" y2="36.0307" stroke="white" stroke-linecap="round"/>
<defs>
<linearGradient id="paint0_linear_1235_2357" x1="-375.273" y1="-322.458" x2="267.968" y2="112.454" gradientUnits="userSpaceOnUse">
<stop stop-color="#866BFF"/>
<stop offset="1" stop-color="#BDB1F3"/>
</linearGradient>
</defs>
</svg>
