<svg width="100" height="100" viewBox="0 0 100 100" fill="none" xmlns="http://www.w3.org/2000/svg">
<path d="M19.167 19.167C15 23.334 15 27.5 15 27.5L56.667 69.167L62.917 67.084L79.584 83.7499C80.902 85.0679 81.693 85.834 83.36 85.834C83.88 85.834 84.532 85.834 85.183 85.183C85.833 84.531 85.833 83.8811 85.833 83.36C85.833 81.693 84.926 80.759 83.75 79.584L67.084 62.917L69.167 56.667L27.5 15C27.5 15 23.334 15 19.167 19.167ZM33.75 56.667C32.0924 56.667 30.5027 57.3255 29.3306 58.4976C28.1585 59.6697 27.5 61.2594 27.5 62.917C27.5 64.5746 28.1585 66.1643 29.3306 67.3364C30.5027 68.5085 32.0924 69.167 33.75 69.167C35.4076 69.167 36.9973 68.5085 38.1694 67.3364C39.3415 66.1643 40 64.5746 40 62.917C40 61.2594 39.3415 59.6697 38.1694 58.4976C36.9973 57.3255 35.4076 56.667 33.75 56.667Z" fill="#686868"/>
</svg>
