<svg width="15" height="15" viewBox="0 0 15 15" fill="none" xmlns="http://www.w3.org/2000/svg">
<g clip-path="url(#clip0_599_1205)">
<path d="M10.9927 9.81095C10.862 9.67985 10.7068 9.57583 10.5358 9.50485C10.3649 9.43388 10.1816 9.39734 9.99657 9.39734C9.81148 9.39734 9.62822 9.43388 9.45729 9.50485C9.28636 9.57583 9.13112 9.67985 9.00047 9.81095L8.32078 10.4906C7.55551 10.0049 6.84648 9.43584 6.20672 8.79376C5.56465 8.15401 4.99554 7.44498 4.50985 6.6797L5.18953 6.00001C5.32063 5.86937 5.42466 5.71413 5.49563 5.5432C5.56661 5.37226 5.60314 5.189 5.60314 5.00392C5.60314 4.81884 5.56661 4.63558 5.49563 4.46464C5.42466 4.29371 5.32063 4.13847 5.18953 4.00783L3.86297 2.68595C3.73417 2.55442 3.58024 2.45012 3.41033 2.37926C3.24042 2.30839 3.058 2.27241 2.87391 2.27345C2.68851 2.273 2.50485 2.30921 2.3335 2.38C2.16215 2.45079 2.00649 2.55477 1.87547 2.68595L1.23797 3.31876C0.934115 3.64547 0.707334 4.03611 0.5743 4.46199C0.441266 4.88786 0.40536 5.33813 0.469223 5.7797C0.619223 7.53751 1.77235 9.65158 3.54891 11.4328C5.32547 13.2141 7.46297 14.3625 9.22079 14.5313C9.35194 14.5383 9.48338 14.5383 9.61453 14.5313C9.99292 14.5471 10.3707 14.4873 10.7256 14.3553C11.0806 14.2233 11.4057 14.0218 11.6817 13.7625L12.3145 13.125C12.4457 12.994 12.5497 12.8383 12.6205 12.667C12.6913 12.4956 12.7275 12.312 12.727 12.1266C12.7281 11.9425 12.6921 11.7601 12.6212 11.5902C12.5504 11.4202 12.4461 11.2663 12.3145 11.1375L10.9927 9.81095ZM12.4692 2.52658C11.8178 1.87266 11.0433 1.35416 10.1906 1.00097C9.33777 0.647792 8.4235 0.466912 7.50047 0.468764C7.37615 0.468764 7.25692 0.51815 7.16902 0.606058C7.08111 0.693965 7.03172 0.813194 7.03172 0.937514C7.03172 1.06183 7.08111 1.18106 7.16902 1.26897C7.25692 1.35688 7.37615 1.40626 7.50047 1.40626C8.30507 1.40624 9.10171 1.56555 9.84442 1.87501C10.5871 2.18446 11.2612 2.63794 11.8277 3.20927C12.3943 3.7806 12.8421 4.45847 13.1452 5.20376C13.4484 5.94905 13.601 6.74701 13.5942 7.55158C13.5942 7.6759 13.6436 7.79512 13.7315 7.88303C13.8194 7.97094 13.9387 8.02033 14.063 8.02033C14.1873 8.02033 14.3065 7.97094 14.3944 7.88303C14.4823 7.79512 14.5317 7.6759 14.5317 7.55158C14.5407 6.61873 14.3628 5.69353 14.0086 4.83051C13.6544 3.96749 13.131 3.18412 12.4692 2.52658Z" fill="#AC9BF7"/>
<path d="M9.80117 5.20771C10.0672 5.47213 10.2776 5.78709 10.4201 6.13405C10.5626 6.48101 10.6343 6.85296 10.6309 7.22803C10.6309 7.35235 10.6802 7.47158 10.7682 7.55948C10.8561 7.64739 10.9753 7.69678 11.0996 7.69678C11.2239 7.69678 11.3432 7.64739 11.4311 7.55948C11.519 7.47158 11.5684 7.35235 11.5684 7.22803C11.5746 6.73164 11.4821 6.23896 11.2965 5.77856C11.1108 5.31817 10.8356 4.89922 10.4867 4.54602C10.1379 4.19282 9.72239 3.9124 9.26433 3.72102C8.80628 3.52964 8.31479 3.43111 7.81836 3.43115C7.69404 3.43115 7.57481 3.48054 7.4869 3.56845C7.399 3.65635 7.34961 3.77558 7.34961 3.8999C7.34961 4.02422 7.399 4.14345 7.4869 4.23136C7.57481 4.31927 7.69404 4.36865 7.81836 4.36865C8.18777 4.37144 8.55302 4.44697 8.89323 4.59094C9.23345 4.73491 9.54197 4.94449 9.80117 5.20771Z" fill="#AC9BF7"/>
</g>
<defs>
<clipPath id="clip0_599_1205">
<rect width="15" height="15" fill="white"/>
</clipPath>
</defs>
</svg>
