<svg width="40" height="40" viewBox="0 0 40 40" fill="none" xmlns="http://www.w3.org/2000/svg">
<path d="M27.5 15.8333C27.5 15.0673 27.3491 14.3087 27.056 13.601C26.7628 12.8933 26.3331 12.2502 25.7915 11.7085C25.2498 11.1669 24.6067 10.7372 23.899 10.444C23.1913 10.1509 22.4327 10 21.6667 10H14.1667C13.7246 10 13.3007 10.1756 12.9882 10.4882C12.6756 10.8007 12.5 11.2246 12.5 11.6667V28.3333C12.5 28.7754 12.6756 29.1993 12.9882 29.5118C13.3007 29.8244 13.7246 30 14.1667 30H21.6667C22.8278 30.005 23.9639 29.6625 24.9286 29.0164C25.8934 28.3702 26.6427 27.4502 27.0801 26.3746C27.5175 25.299 27.623 24.1171 27.383 22.981C27.143 21.845 26.5684 20.8068 25.7333 20C26.2905 19.4582 26.7338 18.8105 27.0372 18.095C27.3406 17.3795 27.4979 16.6105 27.5 15.8333ZM21.6667 26.6667H15.8333V21.6667H21.6667C22.3297 21.6667 22.9656 21.9301 23.4344 22.3989C23.9033 22.8677 24.1667 23.5036 24.1667 24.1667C24.1667 24.8297 23.9033 25.4656 23.4344 25.9344C22.9656 26.4033 22.3297 26.6667 21.6667 26.6667ZM21.6667 18.3333H15.8333V13.3333H21.6667C22.3297 13.3333 22.9656 13.5967 23.4344 14.0656C23.9033 14.5344 24.1667 15.1703 24.1667 15.8333C24.1667 16.4964 23.9033 17.1323 23.4344 17.6011C22.9656 18.0699 22.3297 18.3333 21.6667 18.3333Z" fill="#686868"/>
</svg>
