<svg width="40" height="40" viewBox="0 0 40 40" fill="none" xmlns="http://www.w3.org/2000/svg">
<path d="M28.3333 10H18.3333C17.8913 10 17.4674 10.1756 17.1548 10.4882C16.8423 10.8007 16.6667 11.2246 16.6667 11.6667C16.6667 12.1087 16.8423 12.5326 17.1548 12.8452C17.4674 13.1577 17.8913 13.3333 18.3333 13.3333H20.8667L15.5333 26.6667H11.6667C11.2246 26.6667 10.8007 26.8423 10.4882 27.1548C10.1756 27.4674 10 27.8913 10 28.3333C10 28.7754 10.1756 29.1993 10.4882 29.5118C10.8007 29.8244 11.2246 30 11.6667 30H21.6667C22.1087 30 22.5326 29.8244 22.8452 29.5118C23.1577 29.1993 23.3333 28.7754 23.3333 28.3333C23.3333 27.8913 23.1577 27.4674 22.8452 27.1548C22.5326 26.8423 22.1087 26.6667 21.6667 26.6667H19.1333L24.4667 13.3333H28.3333C28.7754 13.3333 29.1993 13.1577 29.5118 12.8452C29.8244 12.5326 30 12.1087 30 11.6667C30 11.2246 29.8244 10.8007 29.5118 10.4882C29.1993 10.1756 28.7754 10 28.3333 10Z" fill="#686868"/>
</svg>
