<svg width="40" height="40" viewBox="0 0 40 40" fill="none" xmlns="http://www.w3.org/2000/svg">
<path d="M20 25.8333C22.2101 25.8333 24.3298 24.9554 25.8926 23.3926C27.4554 21.8298 28.3333 19.7101 28.3333 17.5V9.16667C28.3333 8.72464 28.1577 8.30072 27.8452 7.98816C27.5326 7.6756 27.1087 7.5 26.6667 7.5C26.2246 7.5 25.8007 7.6756 25.4882 7.98816C25.1756 8.30072 25 8.72464 25 9.16667V17.5C25 18.8261 24.4732 20.0979 23.5355 21.0355C22.5979 21.9732 21.3261 22.5 20 22.5C18.6739 22.5 17.4021 21.9732 16.4645 21.0355C15.5268 20.0979 15 18.8261 15 17.5V9.16667C15 8.72464 14.8244 8.30072 14.5118 7.98816C14.1993 7.6756 13.7754 7.5 13.3333 7.5C12.8913 7.5 12.4674 7.6756 12.1548 7.98816C11.8423 8.30072 11.6667 8.72464 11.6667 9.16667V17.5C11.6667 19.7101 12.5446 21.8298 14.1074 23.3926C15.6702 24.9554 17.7899 25.8333 20 25.8333ZM28.3333 29.1667H11.6667C11.2246 29.1667 10.8007 29.3423 10.4882 29.6548C10.1756 29.9674 10 30.3913 10 30.8333C10 31.2754 10.1756 31.6993 10.4882 32.0118C10.8007 32.3244 11.2246 32.5 11.6667 32.5H28.3333C28.7754 32.5 29.1993 32.3244 29.5118 32.0118C29.8244 31.6993 30 31.2754 30 30.8333C30 30.3913 29.8244 29.9674 29.5118 29.6548C29.1993 29.3423 28.7754 29.1667 28.3333 29.1667Z" fill="#686868"/>
</svg>
