<svg width="40" height="40" viewBox="0 0 40 40" fill="none" xmlns="http://www.w3.org/2000/svg">
<path d="M28.9002 9.09992C28.5046 9.09992 28.1179 9.21722 27.789 9.43698C27.4601 9.65674 27.2038 9.9691 27.0524 10.3346C26.901 10.7 26.8614 11.1021 26.9386 11.4901C27.0158 11.8781 27.2062 12.2344 27.4859 12.5141C27.7657 12.7938 28.122 12.9843 28.51 13.0615C28.8979 13.1387 29.3001 13.0991 29.6655 12.9477C30.031 12.7963 30.3433 12.54 30.5631 12.2111C30.7829 11.8822 30.9002 11.4955 30.9002 11.0999C30.9002 10.5695 30.6894 10.0608 30.3144 9.68571C29.9393 9.31063 29.4306 9.09992 28.9002 9.09992ZM36.5668 13.1333C36.5344 11.7504 36.2754 10.3823 35.8002 9.08325C35.3764 7.97181 34.7168 6.96538 33.8668 6.13325C33.0415 5.27896 32.0328 4.62355 30.9168 4.21659C29.6213 3.72685 28.2516 3.46194 26.8668 3.43325C25.1002 3.33325 24.5335 3.33325 20.0002 3.33325C15.4668 3.33325 14.9002 3.33325 13.1335 3.43325C11.7487 3.46194 10.3791 3.72685 9.0835 4.21659C7.96962 4.62767 6.96172 5.28252 6.1335 6.13325C5.27921 6.95855 4.62379 7.96732 4.21683 9.08325C3.7271 10.3788 3.46218 11.7485 3.4335 13.1333C3.3335 14.8999 3.3335 15.4666 3.3335 19.9999C3.3335 24.5333 3.3335 25.0999 3.4335 26.8666C3.46218 28.2513 3.7271 29.621 4.21683 30.9166C4.62379 32.0325 5.27921 33.0413 6.1335 33.8666C6.96172 34.7173 7.96962 35.3722 9.0835 35.7832C10.3791 36.273 11.7487 36.5379 13.1335 36.5666C14.9002 36.6666 15.4668 36.6666 20.0002 36.6666C24.5335 36.6666 25.1002 36.6666 26.8668 36.5666C28.2516 36.5379 29.6213 36.273 30.9168 35.7832C32.0328 35.3763 33.0415 34.7209 33.8668 33.8666C34.7206 33.0376 35.3807 32.0302 35.8002 30.9166C36.2754 29.6176 36.5344 28.2494 36.5668 26.8666C36.5668 25.0999 36.6668 24.5333 36.6668 19.9999C36.6668 15.4666 36.6668 14.8999 36.5668 13.1333ZM33.5668 26.6666C33.5547 27.7245 33.3631 28.7728 33.0002 29.7666C32.7341 30.4919 32.3066 31.1473 31.7502 31.6833C31.2096 32.2341 30.5555 32.6606 29.8335 32.9333C28.8397 33.2962 27.7914 33.4878 26.7335 33.4999C25.0668 33.5833 24.4502 33.5999 20.0668 33.5999C15.6835 33.5999 15.0668 33.5999 13.4002 33.4999C12.3016 33.5205 11.2078 33.3513 10.1668 32.9999C9.47647 32.7134 8.85242 32.2879 8.3335 31.7499C7.78031 31.2145 7.35823 30.5586 7.10016 29.8333C6.69326 28.8252 6.46757 27.7532 6.4335 26.6666C6.4335 24.9999 6.3335 24.3833 6.3335 19.9999C6.3335 15.6166 6.3335 14.9999 6.4335 13.3333C6.44097 12.2517 6.63841 11.1798 7.01683 10.1666C7.31024 9.4631 7.7606 8.83602 8.3335 8.33325C8.83985 7.7602 9.46564 7.30508 10.1668 6.99992C11.1827 6.63332 12.2535 6.44172 13.3335 6.43325C15.0002 6.43325 15.6168 6.33325 20.0002 6.33325C24.3835 6.33325 25.0002 6.33325 26.6668 6.43325C27.7248 6.44539 28.773 6.637 29.7668 6.99992C30.5242 7.28101 31.204 7.738 31.7502 8.33325C32.2963 8.84522 32.7231 9.47114 33.0002 10.1666C33.3706 11.1815 33.5623 12.2529 33.5668 13.3333C33.6502 14.9999 33.6668 15.6166 33.6668 19.9999C33.6668 24.3833 33.6502 24.9999 33.5668 26.6666ZM20.0002 11.4499C18.3098 11.4532 16.6584 11.9575 15.2546 12.8989C13.8507 13.8404 12.7575 15.1769 12.1129 16.7395C11.4683 18.3021 11.3014 20.0207 11.6332 21.6781C11.9649 23.3356 12.7806 24.8575 13.977 26.0515C15.1734 27.2456 16.6968 28.0583 18.3549 28.3868C20.013 28.7154 21.7313 28.5451 23.2926 27.8975C24.8539 27.2499 26.1883 26.154 27.127 24.7483C28.0658 23.3426 28.5668 21.6902 28.5668 19.9999C28.569 18.8751 28.3488 17.7609 27.9189 16.7215C27.489 15.6821 26.8578 14.7379 26.0616 13.9433C25.2655 13.1487 24.3201 12.5194 23.2798 12.0915C22.2396 11.6636 21.125 11.4455 20.0002 11.4499ZM20.0002 25.5499C18.9025 25.5499 17.8294 25.2244 16.9167 24.6146C16.0041 24.0047 15.2927 23.1379 14.8726 22.1238C14.4526 21.1097 14.3427 19.9938 14.5568 18.9172C14.771 17.8406 15.2995 16.8517 16.0757 16.0755C16.8519 15.2993 17.8408 14.7707 18.9174 14.5566C19.994 14.3424 21.1099 14.4523 22.1241 14.8724C23.1382 15.2925 24.005 16.0038 24.6148 16.9165C25.2247 17.8292 25.5502 18.9022 25.5502 19.9999C25.5502 20.7288 25.4066 21.4505 25.1277 22.1238C24.8488 22.7972 24.44 23.409 23.9246 23.9244C23.4092 24.4397 22.7974 24.8485 22.1241 25.1274C21.4507 25.4064 20.729 25.5499 20.0002 25.5499Z" fill="white"/>
</svg>
