<svg width="40" height="40" viewBox="0 0 40 40" fill="none" xmlns="http://www.w3.org/2000/svg">
<path d="M27.6668 23.3334C27.3335 23.1667 25.1668 22.1667 24.8335 22.0001C24.5002 21.8334 24.1668 21.8334 23.8335 22.1667C23.5002 22.5001 22.8335 23.5001 22.5002 23.8334C22.3335 24.1667 22.0002 24.1667 21.6668 24.0001C20.5002 23.5001 19.3335 22.8334 18.3335 22.0001C17.5002 21.1667 16.6668 20.1667 16.0002 19.1667C15.8335 18.8334 16.0002 18.5001 16.1668 18.3334C16.3335 18.1667 16.5002 17.8334 16.8335 17.6667C17.0002 17.5001 17.1668 17.1667 17.1668 17.0001C17.3335 16.8334 17.3335 16.5001 17.1668 16.3334C17.0002 16.1667 16.1668 14.1667 15.8335 13.3334C15.6668 12.1667 15.3335 12.1667 15.0002 12.1667H14.1668C13.8335 12.1667 13.3335 12.5001 13.1668 12.6667C12.1668 13.6667 11.6668 14.8334 11.6668 16.1667C11.8335 17.6667 12.3335 19.1667 13.3335 20.5001C15.1668 23.1667 17.5002 25.3334 20.3335 26.6667C21.1668 27.0001 21.8335 27.3334 22.6668 27.5001C23.5002 27.8334 24.3335 27.8334 25.3335 27.6667C26.5002 27.5001 27.5002 26.6667 28.1668 25.6667C28.5002 25.0001 28.5002 24.3334 28.3335 23.6667L27.6668 23.3334ZM31.8335 8.16675C25.3335 1.66675 14.8335 1.66675 8.3335 8.16675C3.00016 13.5001 2.00016 21.6667 5.66683 28.1667L3.3335 36.6667L12.1668 34.3334C14.6668 35.6667 17.3335 36.3334 20.0002 36.3334C29.1668 36.3334 36.5002 29.0001 36.5002 19.8334C36.6668 15.5001 34.8335 11.3334 31.8335 8.16675ZM27.3335 31.5001C25.1668 32.8334 22.6668 33.6667 20.0002 33.6667C17.5002 33.6667 15.1668 33.0001 13.0002 31.8334L12.5002 31.5001L7.3335 32.8334L8.66683 27.8334L8.3335 27.3334C4.3335 20.6667 6.3335 12.3334 12.8335 8.16675C19.3335 4.00008 27.6668 6.16675 31.6668 12.5001C35.6668 19.0001 33.8335 27.5001 27.3335 31.5001Z" fill="white"/>
</svg>
