<svg width="40" height="40" viewBox="0 0 40 40" fill="none" xmlns="http://www.w3.org/2000/svg">
<path d="M38.3332 16.1833C38.4156 13.7977 37.8939 11.43 36.8165 9.29997C36.0856 8.42597 35.0711 7.83616 33.9499 7.63331C29.3124 7.21252 24.6558 7.04005 19.9999 7.11664C15.361 7.03657 10.7211 7.20347 6.09988 7.61664C5.18625 7.78283 4.34075 8.21138 3.66655 8.84997C2.16655 10.2333 1.99988 12.6 1.83322 14.6C1.5914 18.1959 1.5914 21.804 1.83322 25.4C1.88143 26.5256 2.04904 27.643 2.33322 28.7333C2.53417 29.5751 2.94075 30.3539 3.51655 31C4.19533 31.6724 5.06052 32.1253 5.99988 32.3C9.59308 32.7435 13.2136 32.9273 16.8332 32.85C22.6665 32.9333 27.7832 32.85 33.8332 32.3833C34.7956 32.2194 35.6852 31.7659 36.3832 31.0833C36.8498 30.6165 37.1983 30.0451 37.3999 29.4166C37.9959 27.5877 38.2887 25.6735 38.2665 23.75C38.3332 22.8166 38.3332 17.1833 38.3332 16.1833ZM16.2332 24.75V14.4333L26.0999 19.6166C23.3332 21.15 19.6832 22.8833 16.2332 24.75Z" fill="white"/>
</svg>
