<svg width="31" height="31" viewBox="0 0 31 31" fill="none" xmlns="http://www.w3.org/2000/svg">
<path d="M27.1968 15.5H24.6135C24.2709 15.5 23.9423 15.6361 23.7001 15.8783C23.4579 16.1205 23.3218 16.4491 23.3218 16.7917C23.3218 17.1342 23.4579 17.4628 23.7001 17.705C23.9423 17.9472 24.2709 18.0833 24.6135 18.0833V20.6667H23.0838C23.2369 20.253 23.3174 19.816 23.3218 19.375C23.3219 18.5219 23.0405 17.6927 22.5213 17.0159C22.002 16.3391 21.2739 15.8526 20.4499 15.6319C19.6259 15.4112 18.7521 15.4686 17.9641 15.7951C17.176 16.1217 16.5178 16.6992 16.0915 17.4381C16.0058 17.5851 15.9501 17.7475 15.9274 17.9161C15.9047 18.0847 15.9156 18.2561 15.9593 18.4205C16.0031 18.5848 16.0788 18.7389 16.1823 18.874C16.2858 19.009 16.4149 19.1222 16.5622 19.2072C16.7096 19.2921 16.8723 19.3472 17.041 19.3691C17.2096 19.391 17.381 19.3794 17.5452 19.3349C17.7093 19.2905 17.8631 19.214 17.9977 19.1099C18.1322 19.0058 18.2449 18.8762 18.3292 18.7285C18.4426 18.5325 18.6056 18.3697 18.8017 18.2565C18.9979 18.1433 19.2203 18.0835 19.4468 18.0833C19.7894 18.0833 20.1179 18.2194 20.3601 18.4616C20.6024 18.7039 20.7385 19.0324 20.7385 19.375C20.7385 19.7176 20.6024 20.0461 20.3601 20.2883C20.1179 20.5306 19.7894 20.6667 19.4468 20.6667C19.1042 20.6667 18.7757 20.8027 18.5334 21.045C18.2912 21.2872 18.1551 21.6157 18.1551 21.9583C18.1551 22.3009 18.2912 22.6294 18.5334 22.8717C18.7757 23.1139 19.1042 23.25 19.4468 23.25C19.7894 23.25 20.1179 23.3861 20.3601 23.6283C20.6024 23.8705 20.7385 24.1991 20.7385 24.5417C20.7385 24.8842 20.6024 25.2128 20.3601 25.455C20.1179 25.6972 19.7894 25.8333 19.4468 25.8333C19.2203 25.8331 18.9979 25.7734 18.8017 25.6601C18.6056 25.5469 18.4426 25.3841 18.3292 25.1881C18.2449 25.0404 18.1322 24.9108 17.9977 24.8067C17.8631 24.7026 17.7094 24.6262 17.5452 24.5817C17.381 24.5372 17.2097 24.5256 17.041 24.5475C16.8723 24.5694 16.7096 24.6245 16.5623 24.7094C16.4149 24.7944 16.2858 24.9077 16.1823 25.0427C16.0789 25.1777 16.0031 25.3318 15.9593 25.4962C15.9156 25.6605 15.9047 25.8319 15.9274 26.0005C15.9501 26.1691 16.0059 26.3315 16.0915 26.4785C16.5178 27.2174 17.176 27.7949 17.9641 28.1215C18.7521 28.448 19.6259 28.5054 20.4499 28.2847C21.2739 28.064 22.002 27.5775 22.5212 26.9007C23.0405 26.2239 23.3219 25.3947 23.3218 24.5417C23.3174 24.1006 23.2369 23.6636 23.0838 23.25H24.6135V27.125C24.6135 27.4676 24.7495 27.7961 24.9918 28.0383C25.234 28.2806 25.5625 28.4167 25.9051 28.4167C26.2477 28.4167 26.5762 28.2806 26.8185 28.0383C27.0607 27.7961 27.1968 27.4676 27.1968 27.125V18.0833C27.5394 18.0833 27.8679 17.9472 28.1101 17.705C28.3524 17.4628 28.4885 17.1342 28.4885 16.7917C28.4885 16.4491 28.3524 16.1205 28.1101 15.8783C27.8679 15.6361 27.5394 15.5 27.1968 15.5ZM11.7359 14.5218C11.819 14.854 12.0307 15.1396 12.3244 15.3157C12.4698 15.4029 12.631 15.4606 12.7987 15.4855C12.9664 15.5104 13.1374 15.502 13.3019 15.4609C13.4664 15.4197 13.6212 15.3466 13.7574 15.2456C13.8936 15.1446 14.0086 15.0178 14.0958 14.8724C14.183 14.7269 14.2407 14.5658 14.2656 14.3981C14.2905 14.2303 14.2822 14.0593 14.241 13.8949L11.9718 4.81473C11.8125 4.17738 11.4447 3.61157 10.9269 3.20725C10.4091 2.80293 9.77104 2.58331 9.11408 2.58331C8.45713 2.58331 7.81904 2.80293 7.30124 3.20725C6.78345 3.61157 6.41568 4.17738 6.2564 4.81473L3.9859 13.8949C3.90276 14.2271 3.955 14.5787 4.13111 14.8724C4.30723 15.166 4.5928 15.3777 4.925 15.4609C5.2572 15.544 5.60882 15.4918 5.9025 15.3157C6.19619 15.1396 6.40788 14.854 6.49102 14.5218L7.21537 11.625H11.0119L11.7359 14.5218ZM7.86136 9.04165L8.76152 5.44164C8.78882 5.37025 8.83713 5.30884 8.90009 5.26551C8.96304 5.22218 9.03766 5.19898 9.11408 5.19898C9.19051 5.19898 9.26513 5.22218 9.32808 5.26551C9.39104 5.30884 9.43935 5.37025 9.46665 5.44164L10.3663 9.04165H7.86136ZM18.1551 9.04165H19.4468C19.7893 9.042 20.1176 9.17819 20.3598 9.42035C20.6019 9.66251 20.7381 9.99085 20.7385 10.3333V11.625C20.7385 11.9676 20.8745 12.2961 21.1168 12.5383C21.359 12.7806 21.6875 12.9167 22.0301 12.9167C22.3727 12.9167 22.7012 12.7806 22.9435 12.5383C23.1857 12.2961 23.3218 11.9676 23.3218 11.625V10.3333C23.3207 9.30595 22.912 8.32098 22.1856 7.59452C21.4591 6.86806 20.4742 6.45944 19.4468 6.45832H18.1551C17.8125 6.45832 17.484 6.59441 17.2418 6.83664C16.9995 7.07888 16.8635 7.40741 16.8635 7.74999C16.8635 8.09256 16.9995 8.4211 17.2418 8.66333C17.484 8.90557 17.8125 9.04165 18.1551 9.04165ZM12.9885 20.6667H11.6968C11.3543 20.6663 11.026 20.5301 10.7838 20.288C10.5417 20.0458 10.4055 19.7175 10.4051 19.375V18.0833C10.4051 17.7407 10.269 17.4122 10.0268 17.17C9.78456 16.9277 9.45602 16.7917 9.11345 16.7917C8.77088 16.7917 8.44234 16.9277 8.20011 17.17C7.95787 17.4122 7.82178 17.7407 7.82178 18.0833V19.375C7.82291 20.4024 8.23152 21.3873 8.95798 22.1138C9.68445 22.8402 10.6694 23.2489 11.6968 23.25H12.9885C13.331 23.25 13.6596 23.1139 13.9018 22.8717C14.144 22.6294 14.2801 22.3009 14.2801 21.9583C14.2801 21.6157 14.144 21.2872 13.9018 21.045C13.6596 20.8027 13.331 20.6667 12.9885 20.6667Z" fill="#686868"/>
</svg>
