<svg width="17" height="21" viewBox="0 0 17 21" fill="none" xmlns="http://www.w3.org/2000/svg">
<path d="M8.32878 10.1779C10.9676 10.1779 13.1068 8.06738 13.1068 5.46394C13.1068 2.8605 10.9676 0.75 8.32878 0.75C5.68996 0.75 3.55078 2.8605 3.55078 5.46394C3.55078 8.06738 5.68996 10.1779 8.32878 10.1779Z" stroke="white" stroke-width="1.5" stroke-linecap="round" stroke-linejoin="round"/>
<path fill-rule="evenodd" clip-rule="evenodd" d="M0.750016 16.7341C0.748748 16.4028 0.823869 16.0754 0.969712 15.7769C1.42738 14.8738 2.718 14.3952 3.78893 14.1785C4.56129 14.0159 5.34432 13.9072 6.13218 13.8534C7.59085 13.727 9.05795 13.727 10.5166 13.8534C11.3044 13.9079 12.0874 14.0165 12.8599 14.1785C13.9308 14.3952 15.2214 14.8287 15.6791 15.7769C15.9724 16.3854 15.9724 17.0919 15.6791 17.7004C15.2214 18.6486 13.9308 19.0821 12.8599 19.2898C12.0884 19.4592 11.3051 19.5708 10.5166 19.6239C9.32938 19.7232 8.1366 19.7413 6.94683 19.6781C6.67223 19.6781 6.40678 19.6781 6.13218 19.6239C5.34665 19.5715 4.56633 19.4598 3.79809 19.2898C2.718 19.0821 1.43653 18.6486 0.969712 17.7004C0.824614 17.3984 0.749568 17.0683 0.750016 16.7341Z" stroke="white" stroke-width="1.5" stroke-linecap="round" stroke-linejoin="round"/>
</svg>
