<svg width="25" height="16" viewBox="0 0 25 16" fill="none" xmlns="http://www.w3.org/2000/svg">
<path d="M24.6622 5.13883C24.8487 5.13883 25 4.98962 25 4.80549V1.61946C25 0.726458 24.2636 0 23.3585 0H1.64126C0.736182 0 0 0.726458 0 1.61946V4.80554C0 4.98967 0.151318 5.13888 0.337842 5.13888C1.93687 5.13888 3.2376 6.4224 3.2376 7.99995C3.2376 9.5775 1.93682 10.861 0.337842 10.861C0.151318 10.861 0 11.0102 0 11.1944V14.3805C0 15.2735 0.736182 16 1.64126 16H23.3585C24.2636 16 25 15.2735 25 14.3805V11.1944C25 11.0102 24.8487 10.861 24.6622 10.861C23.0631 10.861 21.7624 9.5775 21.7624 7.99995C21.7624 6.4224 23.0631 5.13883 24.6622 5.13883ZM21.0867 7.99995C21.0867 9.83274 22.5106 11.3436 24.3243 11.5121V14.3806C24.3243 14.906 23.891 15.3334 23.3585 15.3334H8.5106V13.7783C8.5106 13.5942 8.35928 13.445 8.17275 13.445C7.98623 13.445 7.83491 13.5942 7.83491 13.7783V15.3333H1.64126C1.10879 15.3333 0.675684 14.9059 0.675684 14.3805V11.5121C2.48936 11.3436 3.91328 9.83274 3.91328 7.99995C3.91328 6.16716 2.48936 4.65634 0.675684 4.48781V1.61946C0.675684 1.0941 1.10874 0.666671 1.64126 0.666671H7.83496V2.22158C7.83496 2.40571 7.98628 2.55491 8.1728 2.55491C8.35933 2.55491 8.51064 2.40571 8.51064 2.22158V0.666671H23.3586C23.8911 0.666671 24.3244 1.0941 24.3244 1.61946V4.48781C22.5106 4.65634 21.0867 6.16716 21.0867 7.99995ZM8.5106 6.98443V9.01547C8.5106 9.1996 8.35928 9.34881 8.17275 9.34881C7.98623 9.34881 7.83491 9.1996 7.83491 9.01547V6.98443C7.83491 6.8003 7.98623 6.6511 8.17275 6.6511C8.35928 6.6511 8.5106 6.8003 8.5106 6.98443ZM8.5106 10.3813V12.4126C8.5106 12.5967 8.35928 12.7459 8.17275 12.7459C7.98623 12.7459 7.83491 12.5967 7.83491 12.4126V10.3813C7.83491 10.1972 7.98623 10.048 8.17275 10.048C8.35928 10.048 8.5106 10.1972 8.5106 10.3813ZM8.5106 3.58744V5.61857C8.5106 5.8027 8.35928 5.95191 8.17275 5.95191C7.98623 5.95191 7.83491 5.8027 7.83491 5.61857V3.58744C7.83491 3.40331 7.98623 3.2541 8.17275 3.2541C8.35928 3.2541 8.5106 3.40331 8.5106 3.58744ZM18.5045 3.87496C18.5045 4.05909 18.3532 4.20829 18.1667 4.20829H12.1982C12.0117 4.20829 11.8604 4.05909 11.8604 3.87496C11.8604 3.69083 12.0117 3.54162 12.1982 3.54162H18.1667C18.3532 3.54162 18.5045 3.69083 18.5045 3.87496ZM18.5045 6.62494C18.5045 6.80907 18.3532 6.95827 18.1667 6.95827H12.1982C12.0117 6.95827 11.8604 6.80907 11.8604 6.62494C11.8604 6.44081 12.0117 6.2916 12.1982 6.2916H18.1667C18.3532 6.2916 18.5045 6.44081 18.5045 6.62494ZM18.5045 9.37492C18.5045 9.55905 18.3532 9.70825 18.1667 9.70825H12.1982C12.0117 9.70825 11.8604 9.55905 11.8604 9.37492C11.8604 9.19079 12.0117 9.04158 12.1982 9.04158H18.1667C18.3532 9.04158 18.5045 9.19079 18.5045 9.37492ZM18.5045 12.1249C18.5045 12.309 18.3532 12.4582 18.1667 12.4582H12.1982C12.0117 12.4582 11.8604 12.309 11.8604 12.1249C11.8604 11.9408 12.0117 11.7916 12.1982 11.7916H18.1667C18.3532 11.7916 18.5045 11.9408 18.5045 12.1249Z" fill="#686868"/>
</svg>
