<svg width="58" height="58" viewBox="0 0 58 58" fill="none" xmlns="http://www.w3.org/2000/svg">
<g clip-path="url(#clip0_599_1412)">
<path d="M38.6667 31.4167H31.4167C30.0875 31.4167 29 32.5042 29 33.8333V41.0833C29 42.4125 30.0875 43.5 31.4167 43.5H38.6667C39.9958 43.5 41.0833 42.4125 41.0833 41.0833V33.8333C41.0833 32.5042 39.9958 31.4167 38.6667 31.4167ZM38.6667 7.24999V9.66666H19.3333V7.24999C19.3333 5.92083 18.2458 4.83333 16.9167 4.83333C15.5875 4.83333 14.5 5.92083 14.5 7.24999V9.66666H12.0833C9.40083 9.66666 7.27417 11.8417 7.27417 14.5L7.25 48.3333C7.25 50.9917 9.40083 53.1667 12.0833 53.1667H45.9167C48.575 53.1667 50.75 50.9917 50.75 48.3333V14.5C50.75 11.8417 48.575 9.66666 45.9167 9.66666H43.5V7.24999C43.5 5.92083 42.4125 4.83333 41.0833 4.83333C39.7542 4.83333 38.6667 5.92083 38.6667 7.24999ZM43.5 48.3333H14.5C13.1708 48.3333 12.0833 47.2458 12.0833 45.9167V21.75H45.9167V45.9167C45.9167 47.2458 44.8292 48.3333 43.5 48.3333Z" fill="#686868"/>
</g>
<defs>
<clipPath id="clip0_599_1412">
<rect width="58" height="58" fill="white"/>
</clipPath>
</defs>
</svg>
