<svg width="18" height="22" viewBox="0 0 18 22" fill="none" xmlns="http://www.w3.org/2000/svg">
<g clip-path="url(#clip0_599_1689)">
<path d="M2.25 12.7368C2.25 13.7403 2.44687 14.691 2.84062 15.5888C3.23438 16.4865 3.79688 17.2726 4.52812 17.9473C4.50938 17.8509 4.5 17.764 4.5 17.6868V17.4263C4.5 16.8087 4.6125 16.2298 4.8375 15.6895C5.0625 15.1491 5.39062 14.657 5.82187 14.2132L9 11L12.1781 14.2132C12.6094 14.657 12.9375 15.1491 13.1625 15.6895C13.3875 16.2298 13.5 16.8087 13.5 17.4263V17.6868C13.5 17.764 13.4906 17.8509 13.4719 17.9473C14.2031 17.2719 14.7656 16.4858 15.1595 15.5888C15.5532 14.6917 15.75 13.7411 15.75 12.7368C15.75 11.7719 15.5767 10.8599 15.2302 10.0007C14.8837 9.14157 14.382 8.37467 13.725 7.7C13.35 7.95087 12.9563 8.13922 12.5438 8.26505C12.1313 8.39087 11.7094 8.4534 11.2781 8.45263C10.1156 8.45263 9.10763 8.05702 8.25412 7.26579C7.40062 6.47456 6.909 5.5 6.77925 4.34211C6.04725 4.97895 5.4 5.64011 4.8375 6.32559C4.275 7.01105 3.80137 7.70579 3.41663 8.40979C3.03188 9.11379 2.74163 9.83246 2.54588 10.5658C2.35013 11.2991 2.2515 12.0228 2.25 12.7368ZM9 14.2421L7.39688 15.8632C7.19063 16.0754 7.03125 16.3167 6.91875 16.5868C6.80625 16.857 6.75 17.1368 6.75 17.4263C6.75 18.0438 6.97012 18.5746 7.41037 19.0184C7.85063 19.4622 8.3805 19.6843 9 19.6843C9.6195 19.6843 10.149 19.4622 10.5885 19.0184C11.028 18.5746 11.2485 18.0438 11.25 17.4263C11.25 17.1176 11.1937 16.8331 11.0812 16.5729C10.9688 16.3129 10.8094 16.0763 10.6031 15.8632L9 14.2421ZM9 0V3.82105C9 4.47719 9.2205 5.02719 9.6615 5.47105C10.1025 5.91491 10.6414 6.13684 11.2781 6.13684C11.6156 6.13684 11.9299 6.06467 12.2209 5.92032C12.5119 5.77597 12.7695 5.55867 12.9938 5.26843L13.5 4.63157C14.8875 5.44211 15.9843 6.57105 16.7906 8.01843C17.5968 9.46579 18 11.0386 18 12.7368C18 15.3229 17.128 17.5132 15.3843 19.3079C13.6406 21.1027 11.5125 22 9 22C6.4875 22 4.35938 21.1027 2.61562 19.3079C0.871875 17.5132 0 15.3229 0 12.7368C0 10.2474 0.81075 7.88333 2.43225 5.64473C4.05375 3.40614 6.243 1.52456 9 0Z" fill="black"/>
</g>
<defs>
<clipPath id="clip0_599_1689">
<rect width="18" height="22" fill="white"/>
</clipPath>
</defs>
</svg>
