<svg width="30" height="30" viewBox="0 0 30 30" fill="none" xmlns="http://www.w3.org/2000/svg">
<path d="M6.08969 27.7485L4.99641 27.0207C2.73974 25.3121 -0.207578 21.335 1.34602 18.4841C2.27869 16.7726 4.63454 15.8926 6.41957 15.4572L7.50707 15.2336C8.79824 15.002 9.68447 14.8036 10.086 13.3946L10.3188 12.4498C11.2043 9.43845 14.6945 8.81876 17.0137 10.6505L22.7599 4.9805C22.8926 4.83827 22.9234 4.75189 22.9909 4.57273C23.205 4.0048 23.4062 3.91589 23.7865 3.48325L23.271 3.07721C22.9177 2.73668 23.1486 2.23115 23.6533 2.26915C23.9475 2.2913 24.185 2.65426 24.3624 2.86345L24.5492 2.65393C24.3634 2.54738 24.1756 2.39783 24.0875 2.19605C23.8479 1.64746 24.7473 1.03537 25.0319 2.0207C25.1617 1.95675 25.2498 1.87275 25.35 1.77059C24.9422 1.49629 24.8035 1.02908 25.2867 0.805852C25.5748 0.793026 25.7477 0.928747 25.8682 1.18771C26.9332 0.486478 27.2682 0.807909 28.1429 1.52772C29.1831 2.38376 29.2028 2.4091 28.8477 3.60469C28.7557 3.9144 28.7036 4.29054 28.5012 4.55228C28.3629 4.73122 28.143 4.84096 28.0381 5.0455C28.0544 5.162 28.2348 5.25313 28.3157 5.33847C28.8627 5.91567 27.9095 6.75866 27.3704 6.16745C27.3081 6.09919 27.2057 5.91392 27.225 5.81499L27.2332 5.79122C27.2665 5.69131 27.3074 5.60467 27.3583 5.51245C27.0719 5.63344 26.8076 5.78149 26.5664 5.97884L26.6008 5.99618C26.8338 6.11413 27.0971 6.27427 26.9407 6.56161C26.8514 6.72561 26.6528 6.87966 26.4742 6.92542C26.1125 7.018 26.0051 6.70218 25.753 6.55645C25.0496 6.65349 24.8847 6.86425 24.4388 7.35655L18.8412 13.367C19.8026 14.491 20.2674 15.9298 20.008 17.3991C19.5389 20.0567 17.0676 19.2178 16.2622 20.8919C15.9805 21.4772 15.9668 22.1548 15.8614 22.7856C15.472 25.1156 14.5268 28.0438 11.9713 28.7457C9.95518 29.2994 7.86783 28.7603 6.08969 27.7485ZM26.7576 1.6475C26.4985 1.8756 26.2643 2.13323 26.0319 2.38792L24.4057 4.11871C24.1799 4.34569 23.9557 4.57214 23.7922 4.84975L24.8527 5.90149L25.1453 5.78448C25.9306 5.42406 26.6244 4.89088 27.3258 4.39403L27.681 4.1398C27.7162 4.1135 27.7662 4.0854 27.7817 4.04317L28.1795 2.7285C27.8838 2.37069 27.1667 1.82277 26.7576 1.6475ZM23.3569 5.66694L15.5017 13.3727C15.902 13.5604 16.238 13.805 16.4892 14.1762L16.6152 14.3982L24.1035 6.41788L23.3569 5.66694ZM13.9991 10.5235C12.7418 10.5711 11.6425 11.3444 11.2207 12.5347C11.1222 12.8124 11.0788 13.1117 11.0109 13.3982C10.8276 14.1717 10.473 14.8508 9.84168 15.3493C8.93688 16.0636 7.7367 16.0641 6.65823 16.3083C5.13097 16.6541 2.73353 17.548 2.06677 18.9981C1.3901 20.4698 2.21656 22.3646 3.02343 23.5996C4.36438 25.6519 6.41225 27.3439 8.83276 27.9061C10.3926 28.2683 12.1684 28.1603 13.3046 26.8843L13.5569 26.5646C14.3118 25.4634 14.6978 24.1775 14.9359 22.8754C15.1093 21.9276 15.1022 20.9365 15.6777 20.1148C16.1949 19.3764 16.9339 19.0836 17.729 18.7476C18.7387 18.321 19.1236 17.9905 19.1668 16.8888L19.1715 16.5206C19.164 15.5639 18.7928 14.7904 18.2273 14.0343L17.4641 14.8135C17.3039 14.974 17.1459 15.1407 16.968 15.2816L16.8851 15.3592C16.8749 15.5541 16.8691 15.7528 16.8306 15.9445C16.4524 17.8273 13.9602 18.4476 12.6719 17.0113C11.4276 15.6242 12.2184 13.4906 14.072 13.144C14.1991 13.1202 14.3612 13.0809 14.4871 13.1279L14.5299 13.0754C14.7084 12.847 14.9545 12.6534 15.164 12.452L16.3558 11.2986C15.6357 10.8046 14.8731 10.5141 13.9991 10.5235ZM14.3031 14.0227C12.2802 14.2979 12.7395 17.1827 14.6877 16.8908L14.7067 16.8877C16.5763 16.6289 16.2831 13.8868 14.3031 14.0227Z" fill="black"/>
<path d="M10.7502 23.5804L10.7202 23.5855C10.0898 23.6817 9.59794 23.0605 9.19658 22.6682L7.0708 20.5686C6.54925 20.0457 5.89781 19.5189 6.50326 18.7012C6.7033 18.431 6.975 18.2916 7.30265 18.2419C7.7574 18.1964 7.99962 18.4373 8.29921 18.7273L11.0395 21.3966C11.2962 21.6408 11.6176 21.8765 11.7052 22.2388C11.8663 22.9054 11.3723 23.4359 10.7502 23.5804ZM7.35984 19.1236C7.26837 19.1663 7.20046 19.2372 7.14298 19.319C7.25244 19.5241 7.44123 19.6788 7.60587 19.8399L10.3909 22.5601C10.4663 22.6272 10.5656 22.7326 10.6714 22.6855C10.758 22.6231 10.818 22.5461 10.874 22.4559L7.78066 19.4648C7.67185 19.3566 7.54423 19.1947 7.4121 19.1195L7.35984 19.1236Z" fill="black"/>
</svg>
