<svg width="21" height="21" viewBox="0 0 21 21" fill="none" xmlns="http://www.w3.org/2000/svg">
<path d="M17.9638 10.9637L15.3388 13.5887C15.211 13.7165 15.043 13.7812 14.875 13.7812C14.707 13.7812 14.539 13.7174 14.4112 13.5887C14.1549 13.3324 14.1549 12.9167 14.4112 12.6604L15.9163 11.1554H7.87588C7.51363 11.1554 7.21963 10.8614 7.21963 10.4991C7.21963 10.1369 7.51363 9.84287 7.87588 9.84287H15.9163L14.4112 8.33788C14.1549 8.0815 14.1549 7.66588 14.4112 7.4095C14.6676 7.15313 15.0833 7.15313 15.3396 7.4095L17.9646 10.0345C18.221 10.2909 18.221 10.7065 17.9646 10.9629L17.9638 10.9637ZM8.53125 17.5C8.53125 17.1377 8.23725 16.8438 7.875 16.8438H5.25C4.64713 16.8438 4.15625 16.3529 4.15625 15.75V5.25C4.15625 4.64713 4.64713 4.15625 5.25 4.15625H7.875C8.23725 4.15625 8.53125 3.86225 8.53125 3.5C8.53125 3.13775 8.23725 2.84375 7.875 2.84375H5.25C3.92263 2.84375 2.84375 3.92263 2.84375 5.25V15.75C2.84375 17.0774 3.92263 18.1562 5.25 18.1562H7.875C8.23725 18.1562 8.53125 17.8623 8.53125 17.5Z" fill="#686868"/>
</svg>
