<svg width="22" height="22" viewBox="0 0 22 22" fill="none" xmlns="http://www.w3.org/2000/svg">
<path d="M13.5401 5.38083C13.7506 5.50034 13.9998 5.53175 14.2333 5.46821C14.4669 5.40467 14.6658 5.25134 14.7868 5.04167C14.8868 4.86508 15.0427 4.72669 15.2299 4.64821C15.4171 4.56974 15.625 4.5556 15.8211 4.60803C16.0172 4.66046 16.1903 4.77649 16.3133 4.93791C16.4364 5.09934 16.5024 5.29703 16.5009 5.5C16.5009 5.74311 16.4044 5.97627 16.2325 6.14818C16.0605 6.32009 15.8274 6.41667 15.5843 6.41667C15.3412 6.41667 15.108 6.51324 14.9361 6.68515C14.7642 6.85706 14.6676 7.09022 14.6676 7.33333C14.6676 7.57645 14.7642 7.80961 14.9361 7.98151C15.108 8.15342 15.3412 8.25 15.5843 8.25C16.0669 8.24969 16.541 8.12236 16.9588 7.8808C17.3767 7.63924 17.7236 7.29196 17.9647 6.87385C18.2059 6.45575 18.3327 5.98155 18.3325 5.4989C18.3323 5.01625 18.2051 4.54215 17.9636 4.12424C17.7222 3.70633 17.375 3.35932 16.9569 3.1181C16.5389 2.87687 16.0647 2.74992 15.5821 2.75C15.0994 2.75008 14.6253 2.87718 14.2073 3.11854C13.7894 3.3599 13.4423 3.70701 13.2009 4.125C13.1403 4.22962 13.101 4.3452 13.0853 4.46508C13.0695 4.58496 13.0776 4.70677 13.1092 4.8235C13.1407 4.94023 13.195 5.04957 13.269 5.14522C13.3429 5.24087 13.4351 5.32095 13.5401 5.38083ZM17.4818 11.9167C17.2412 11.8854 16.998 11.9509 16.8055 12.0987C16.6131 12.2464 16.4871 12.4645 16.4551 12.705C16.2627 14.2589 15.5089 15.6888 14.3354 16.7255C13.162 17.7622 11.65 18.334 10.0843 18.3333H4.96011L5.55594 17.7375C5.72667 17.5658 5.8225 17.3334 5.8225 17.0912C5.8225 16.8491 5.72667 16.6167 5.55594 16.445C4.66215 15.5477 4.05388 14.4059 3.80776 13.1636C3.56164 11.9212 3.68868 10.6338 4.17287 9.46351C4.65707 8.29321 5.47676 7.29238 6.5287 6.58706C7.58064 5.88175 8.81777 5.50352 10.0843 5.5C10.3274 5.5 10.5605 5.40342 10.7325 5.23151C10.9044 5.05961 11.0009 4.82645 11.0009 4.58333C11.0009 4.34022 10.9044 4.10706 10.7325 3.93515C10.5605 3.76324 10.3274 3.66667 10.0843 3.66667C8.5344 3.67313 7.0177 4.11605 5.70792 4.94468C4.39814 5.77331 3.34827 6.95413 2.67858 8.35186C2.0089 9.7496 1.74648 11.3077 1.9214 12.8477C2.09632 14.3877 2.7015 15.8472 3.66761 17.0592L2.10011 18.5992C1.97291 18.7281 1.88675 18.8918 1.85249 19.0696C1.81823 19.2474 1.83741 19.4314 1.90761 19.5983C1.97638 19.7657 2.09316 19.909 2.24323 20.0102C2.39331 20.1113 2.56997 20.1658 2.75094 20.1667H10.0843C12.0931 20.1669 14.033 19.4343 15.5401 18.1061C17.0472 16.7779 18.0179 14.9454 18.2701 12.9525C18.2869 12.8327 18.2797 12.7107 18.2491 12.5936C18.2185 12.4765 18.165 12.3667 18.0917 12.2704C18.0184 12.1741 17.9268 12.0932 17.8221 12.0325C17.7174 11.9718 17.6018 11.9324 17.4818 11.9167ZM15.9326 9.23083C15.7657 9.157 15.5806 9.13466 15.4009 9.16667L15.2359 9.22167L15.0709 9.30417L14.9334 9.42333C14.851 9.5078 14.7856 9.60741 14.7409 9.71667C14.6867 9.83101 14.6616 9.95694 14.6676 10.0833C14.6649 10.2056 14.6868 10.3271 14.7318 10.4408C14.7792 10.5508 14.8477 10.6505 14.9334 10.7342C15.0191 10.8191 15.1207 10.8863 15.2324 10.932C15.344 10.9776 15.4636 11.0007 15.5843 11C15.8274 11 16.0605 10.9034 16.2325 10.7315C16.4044 10.5596 16.5009 10.3264 16.5009 10.0833C16.504 9.96309 16.4789 9.84379 16.4276 9.735C16.3291 9.51473 16.1529 9.3385 15.9326 9.24V9.23083Z" fill="#686868"/>
</svg>
